<svg width="81" height="80" viewBox="0 0 81 80" fill="none" xmlns="http://www.w3.org/2000/svg">
<rect x="0.5" width="80" height="80" rx="40" fill="#7F4200"/>
<g clip-path="url(#clip0_1_679)">
<path fill-rule="evenodd" clip-rule="evenodd" d="M35.875 21H24.3125C23.6992 21 23.111 21.2436 22.6773 21.6773C22.2436 22.111 22 22.6992 22 23.3125V34.875C22 35.4883 22.2436 36.0765 22.6773 36.5102C23.111 36.9439 23.6992 37.1875 24.3125 37.1875H35.875C36.4883 37.1875 37.0765 36.9439 37.5102 36.5102C37.9439 36.0765 38.1875 35.4883 38.1875 34.875V23.3125C38.1875 22.6992 37.9439 22.111 37.5102 21.6773C37.0765 21.2436 36.4883 21 35.875 21ZM35.875 41.8125H24.3125C23.6992 41.8125 23.111 42.0561 22.6773 42.4898C22.2436 42.9235 22 43.5117 22 44.125V55.6875C22 56.3008 22.2436 56.889 22.6773 57.3227C23.111 57.7564 23.6992 58 24.3125 58H35.875C36.4883 58 37.0765 57.7564 37.5102 57.3227C37.9439 56.889 38.1875 56.3008 38.1875 55.6875V44.125C38.1875 43.5117 37.9439 42.9235 37.5102 42.4898C37.0765 42.0561 36.4883 41.8125 35.875 41.8125ZM56.6875 21H45.125C44.5117 21 43.9235 21.2436 43.4898 21.6773C43.0561 22.111 42.8125 22.6992 42.8125 23.3125V34.875C42.8125 35.4883 43.0561 36.0765 43.4898 36.5102C43.9235 36.9439 44.5117 37.1875 45.125 37.1875H56.6875C57.3008 37.1875 57.889 36.9439 58.3227 36.5102C58.7564 36.0765 59 35.4883 59 34.875V23.3125C59 22.6992 58.7564 22.111 58.3227 21.6773C57.889 21.2436 57.3008 21 56.6875 21ZM44.8359 47.8828H48.8828V43.8359C48.8828 43.2993 49.096 42.7846 49.4755 42.4052C49.8549 42.0257 50.3696 41.8125 50.9062 41.8125C51.4429 41.8125 51.9576 42.0257 52.337 42.4052C52.7165 42.7846 52.9297 43.2993 52.9297 43.8359V47.8828H56.9766C57.5132 47.8828 58.0279 48.096 58.4073 48.4755C58.7868 48.8549 59 49.3696 59 49.9062C59 50.4429 58.7868 50.9576 58.4073 51.337C58.0279 51.7165 57.5132 51.9297 56.9766 51.9297H52.9297V55.9766C52.9297 56.5132 52.7165 57.0279 52.337 57.4073C51.9576 57.7868 51.4429 58 50.9062 58C50.3696 58 49.8549 57.7868 49.4755 57.4073C49.096 57.0279 48.8828 56.5132 48.8828 55.9766V51.9297H44.8359C44.2993 51.9297 43.7846 51.7165 43.4052 51.337C43.0257 50.9576 42.8125 50.4429 42.8125 49.9062C42.8125 49.3696 43.0257 48.8549 43.4052 48.4755C43.7846 48.096 44.2993 47.8828 44.8359 47.8828Z" fill="white"/>
</g>
<defs>
<clipPath id="clip0_1_679">
<rect width="37" height="37" fill="white" transform="translate(22 21)"/>
</clipPath>
</defs>
</svg>
