<svg width="81" height="80" viewBox="0 0 81 80" fill="none" xmlns="http://www.w3.org/2000/svg">
<rect x="0.5" width="80" height="80" rx="40" fill="#7F0079"/>
<g clip-path="url(#clip0_1_651)">
<path d="M59 38.4155C59 42.2569 56.0241 45.4541 52.1186 46.0538L51.369 46.1574H49.8698V38.756C49.8698 35.492 47.1788 32.8348 43.8731 32.8348H36.3772C33.0715 32.8348 30.3804 35.492 30.3804 38.756V46.1574H28.8812L28.1316 46.1426C27.7194 46.113 27.3221 46.0538 26.9323 45.965C26.2876 45.8095 25.6805 45.5653 25.1333 45.2471C23.2518 44.159 22 42.1977 22 39.9696C22 36.5502 24.9459 33.7747 28.5739 33.7747C28.8212 33.7747 29.0686 33.7895 29.3084 33.8117C28.8362 32.7311 28.5739 31.5321 28.5739 30.2886C28.5739 25.1519 32.989 21 38.4383 21C43.8876 21 48.3027 25.1596 48.3027 30.2886C48.3027 30.5477 48.2952 30.7919 48.2727 31.0362C49.0598 30.8067 49.8993 30.6735 50.7688 30.6735C55.3038 30.6735 58.992 34.1448 58.992 38.4155L59 38.4155ZM43.1235 38.756H37.1268C36.7145 38.756 36.3772 39.089 36.3772 39.4961V45.4173C36.3772 45.8244 36.7145 46.1574 37.1268 46.1574H43.1235C43.5358 46.1574 43.8731 45.8244 43.8731 45.4173V39.4961C43.8731 39.089 43.5358 38.756 43.1235 38.756ZM43.8731 34.3151H36.3772C33.896 34.3151 31.8796 36.3061 31.8796 38.756V46.1574C31.8796 48.6073 33.896 50.5983 36.3772 50.5983H43.8731C46.3543 50.5983 48.3707 48.6073 48.3707 46.1574V38.756C48.3707 36.3061 46.3543 34.3151 43.8731 34.3151ZM45.3723 45.4175C45.3723 46.6387 44.3603 47.6379 43.1235 47.6379H37.1268C35.8899 47.6379 34.878 46.6387 34.878 45.4175V39.4964C34.878 38.2751 35.8899 37.2759 37.1268 37.2759H43.1235C44.3603 37.2759 45.3723 38.2751 45.3723 39.4964V45.4175ZM48.648 53.4627C47.8459 53.4627 47.1563 53.9364 46.849 54.6099H43.8731V52.7966C43.8731 52.3895 43.5358 52.0564 43.1235 52.0564C42.7112 52.0564 42.3739 52.3895 42.3739 52.7966V55.3501C42.3739 55.7572 42.7112 56.0902 43.1235 56.0902H46.804C47.0814 56.8304 47.801 57.3559 48.648 57.3559C49.7349 57.3559 50.6195 56.4825 50.6195 55.4093C50.6195 54.3361 49.7349 53.4627 48.648 53.4627ZM37.8764 52.8188V55.3501C37.8764 55.7572 37.5391 56.0902 37.1268 56.0902H33.4463C33.1689 56.8304 32.4494 57.3559 31.6023 57.3559C30.5154 57.3559 29.6308 56.4825 29.6308 55.4093C29.6308 54.3361 30.5154 53.4627 31.6023 53.4627C32.4044 53.4627 33.094 53.9364 33.4013 54.6099H36.3772V52.8188C36.3772 52.4117 36.7145 52.0787 37.1268 52.0787C37.539 52.0787 37.8764 52.4117 37.8764 52.8188ZM40.1252 58C39.7129 58 39.3756 57.6669 39.3756 57.2599V52.7968C39.3756 52.3897 39.7129 52.0566 40.1252 52.0566C40.5375 52.0566 40.8748 52.3897 40.8748 52.7968V57.2599C40.8748 57.6669 40.5375 58 40.1252 58Z" fill="white"/>
</g>
<defs>
<clipPath id="clip0_1_651">
<rect width="37" height="37" fill="white" transform="translate(22 21)"/>
</clipPath>
</defs>
</svg>
