<svg width="81" height="80" viewBox="0 0 81 80" fill="none" xmlns="http://www.w3.org/2000/svg">
<rect x="0.5" width="80" height="80" rx="40" fill="#57007F"/>
<g clip-path="url(#clip0_1_626)">
<path fill-rule="evenodd" clip-rule="evenodd" d="M40.3053 32.0477C38.2146 29.9569 34.8233 29.9569 32.7326 32.0477C30.6419 34.1385 30.6419 37.5302 32.7326 39.621C34.82 41.7103 38.2146 41.7103 40.3053 39.621C42.3927 37.5302 42.3927 34.1386 40.3053 32.0477ZM38.4956 34.0181C38.6048 34.3553 38.4121 34.7151 38.0749 34.821C37.7377 34.927 37.3765 34.7375 37.2721 34.4003C37.1228 33.9121 36.3633 33.7515 35.9457 34.1289C35.4897 34.5384 35.8494 35.1936 36.519 35.1936C38.3608 35.1936 39.2825 37.2957 37.9497 38.4969C37.7297 38.696 37.4583 38.8502 37.1597 38.9417V39.5086C37.1597 39.8635 36.869 40.1509 36.5158 40.1509C36.1625 40.1509 35.8751 39.8635 35.8751 39.5086V38.9401C35.2601 38.7522 34.7462 38.2897 34.5455 37.6747C34.4363 37.3375 34.6226 36.9761 34.9598 36.8669C35.2938 36.7578 35.6583 36.9424 35.7658 37.2781C35.9248 37.7646 36.6811 37.9124 37.0922 37.5414C37.545 37.1319 37.1885 36.4767 36.519 36.4767C34.6772 36.4767 33.7523 34.3746 35.085 33.1734C35.3082 32.9743 35.5764 32.8201 35.8751 32.7286V32.1602C35.8751 31.8053 36.1657 31.5178 36.519 31.5178C36.8722 31.5178 37.1597 31.8053 37.1597 32.1602V32.7302C37.7843 32.9213 38.3013 33.3918 38.4956 34.0181ZM33.5838 29.4043C33.7748 29.7351 33.6608 30.1558 33.3317 30.3454C33.0009 30.5348 32.5802 30.4208 32.3875 30.0916L31.8495 29.157C31.6617 28.8262 31.7725 28.4055 32.1049 28.216C32.434 28.0265 32.8563 28.1405 33.0458 28.4697L33.5838 29.4043ZM36.9076 28.8824C36.9076 29.2646 36.5945 29.5745 36.2123 29.5745C35.8302 29.5745 35.5203 29.2646 35.5203 28.8824V27.8097C35.5203 27.4275 35.8302 27.1175 36.2123 27.1175C36.5945 27.1175 36.9076 27.4275 36.9076 27.8097V28.8824ZM30.9697 31.5128C31.3005 31.7039 31.4129 32.1263 31.2218 32.4571C31.0307 32.7879 30.61 32.9003 30.2776 32.7092L29.3495 32.1728C29.0171 31.9817 28.9063 31.5594 29.0974 31.2286C29.2885 30.8977 29.7124 30.7853 30.0416 30.9764L30.9697 31.5128ZM33.5871 54.6164H47.411C47.7289 54.6164 47.9874 54.875 47.9874 55.1945V57.4203C47.9874 57.7398 47.7289 57.9984 47.411 57.9984H33.5871C33.2691 57.9984 33.0106 57.7398 33.0106 57.4203V55.1945C33.0106 54.8749 33.2692 54.6164 33.5871 54.6164ZM37.9128 45.1047L33.9707 49.219C33.8599 49.3379 33.7058 49.3989 33.5532 49.3989L31.5958 49.4021V57.4219C31.5958 57.7415 31.3373 58 31.0194 58H22.5797C22.2618 58 22 57.7415 22 57.4219V48.2329C22 46.6576 23.2878 45.3697 24.8663 45.3697H32.1019L35.1657 42.3956C36.2624 41.3293 37.8168 41.9459 38.3049 43.1086C38.5634 43.7317 38.512 44.4736 37.9131 45.1063L37.9128 45.1047ZM24.1164 38.1225C25.5986 36.6403 27.9991 36.6403 29.4813 38.1225C30.9634 39.6048 30.9634 42.0055 29.4813 43.4878C27.9992 44.9702 25.5986 44.9701 24.1164 43.4878C22.6343 42.0056 22.6343 39.6048 24.1164 38.1225ZM45.0555 29.9276C44.7376 29.9276 44.4791 29.669 44.4791 29.3495C44.4791 29.0299 44.7376 28.7714 45.0555 28.7714H49.884C50.2019 28.7714 50.4604 29.0299 50.4604 29.3495C50.4604 29.669 50.2019 29.9276 49.884 29.9276H45.0555ZM45.0555 27.4722C44.7376 27.4722 44.4791 27.2136 44.4791 26.8941C44.4791 26.5745 44.7376 26.316 45.0555 26.316H52.1223C52.4434 26.316 52.7019 26.5745 52.7019 26.8941C52.7019 27.2137 52.4434 27.4722 52.1223 27.4722H45.0555ZM52.3167 21.9593C56.8434 24.5913 56.7406 31.3246 52.4387 33.9294L52.3552 36.2258C52.352 36.7156 51.835 36.9564 51.4689 36.7204L49.1807 35.2542C43.4853 35.8564 39.6122 29.3462 42.44 24.4771C44.4391 21.0422 49.0413 20.0512 52.3168 21.9575L52.3167 21.9593ZM54.2002 37.0127C56.2973 37.0127 57.9962 38.7117 57.9962 40.8058C57.9962 42.9014 56.2973 44.6004 54.2002 44.6004C52.1031 44.6004 50.4074 42.9014 50.4074 40.8058C50.4074 38.7101 52.1063 37.0127 54.2002 37.0127ZM46.1235 49.9591C45.1424 49.9591 44.4375 50.7444 44.4375 51.7063C44.4375 52.6699 45.1359 53.4615 46.1235 53.4615L52.4371 53.4631C52.7551 53.4631 53.0296 53.2801 53.1485 52.9846L54.531 49.5801C54.6418 49.3071 54.9549 49.1771 55.2295 49.2879C55.5041 49.4003 55.6342 49.7118 55.5234 49.9848L53.8245 54.16C53.7571 54.3768 53.5531 54.5342 53.3155 54.5342H49.6945C49.5356 54.5342 49.4071 54.6642 49.4071 54.8232V57.4617C49.4071 57.7588 49.6464 57.998 49.9434 57.998H58.4637C58.7607 57.998 59 57.7572 59 57.4617V48.4269C59 46.7439 57.6255 45.3677 55.9427 45.3677H52.4646C50.7818 45.3677 49.4073 46.7423 49.4073 48.4269V49.9573H46.1236L46.1235 49.9591Z" fill="white"/>
</g>
<defs>
<clipPath id="clip0_1_626">
<rect width="37" height="37" fill="white" transform="translate(22 21)"/>
</clipPath>
</defs>
</svg>
