<svg width="81" height="80" viewBox="0 0 81 80" fill="none" xmlns="http://www.w3.org/2000/svg">
<rect x="0.5" width="80" height="80" rx="40" fill="#21007F"/>
<path fill-rule="evenodd" clip-rule="evenodd" d="M53.8446 47.4481H51.3618C50.3352 47.4481 49.4998 46.6127 49.4998 45.5861H48.2584C48.2584 47.2973 49.6506 48.6895 51.3618 48.6895H53.8446V53.0343H45.1549V57.9998H35.2239V56.7789C35.2239 51.6266 33.6275 46.653 30.9486 42.2517C30.2944 41.1773 29.7886 40.0042 29.459 38.7585H34.6157C36.3145 41.016 39.0083 42.4826 42.0515 42.4826C47.1933 42.4826 51.3618 38.3141 51.3618 33.1723C51.3618 28.0305 47.1933 23.862 42.0515 23.862C38.737 23.862 35.8353 25.5987 34.1855 28.2068H31.1274C33.3724 24.7049 37.1952 22.2786 41.5599 22.0235C49.1944 21.5766 55.5285 27.5539 55.6917 35.0518L55.7066 35.0344L58.8101 44.9654H53.8446V47.4481ZM28.7601 35.6551H34.7174C34.9049 35.1294 35.3189 34.7154 35.8446 34.528V33.7931H25.7994C25.5424 34.5137 24.8597 35.0344 24.0515 35.0344C23.0249 35.0344 22.1895 34.199 22.1895 33.1724C22.1895 32.1458 23.0249 31.3103 24.0515 31.3103C24.8597 31.3103 25.5424 31.8311 25.7994 32.5517H35.8446V31.8168C35.3189 31.6294 34.9049 31.2154 34.7174 30.6896H28.7601L26.2773 28.2069H25.7994C25.5424 28.9275 24.8597 29.4483 24.0515 29.4483C23.0249 29.4483 22.1895 28.6128 22.1895 27.5862C22.1895 26.5596 23.0249 25.7241 24.0515 25.7241C24.8597 25.7241 25.5424 26.2449 25.7994 26.9655H26.7912L29.274 29.4483H34.7174C34.9744 28.7276 35.6571 28.2069 36.4653 28.2069C36.937 28.2069 37.3628 28.3887 37.6911 28.6786L40.2204 27.2715C40.2037 27.1716 40.1894 27.0704 40.1894 26.9655C40.1894 25.9389 41.0249 25.1034 42.0515 25.1034C43.0781 25.1034 43.9135 25.9389 43.9135 26.9655C43.9135 27.0704 43.8993 27.1716 43.8825 27.2709L46.4118 28.678C46.7401 28.3881 47.1659 28.2063 47.6377 28.2063C48.6643 28.2063 49.4997 29.0417 49.4997 30.0683C49.4997 30.8765 48.979 31.5592 48.2583 31.8162V34.528C48.979 34.7849 49.4997 35.4677 49.4997 36.2758C49.4997 37.3024 48.6643 38.1379 47.6377 38.1379C47.1659 38.1379 46.7401 37.956 46.4118 37.6662L43.8825 39.0733C43.8993 39.1732 43.9135 39.2744 43.9135 39.3793C43.9135 40.4059 43.0781 41.2413 42.0515 41.2413C41.0249 41.2413 40.1894 40.4059 40.1894 39.3793C40.1894 39.2744 40.2037 39.1732 40.2204 39.0733L37.6911 37.6662C37.3628 37.956 36.937 38.1379 36.4653 38.1379C35.6571 38.1379 34.9744 37.6171 34.7174 36.8965H29.274L26.7912 39.3793H25.7994C25.5424 40.0999 24.8597 40.6206 24.0515 40.6206C23.0249 40.6206 22.1895 39.7852 22.1895 38.7586C22.1895 37.732 23.0249 36.8965 24.0515 36.8965C24.8597 36.8965 25.5424 37.4173 25.7994 38.1379H26.2773L28.7601 35.6551ZM23.4308 38.7586C23.4308 39.1006 23.7095 39.3793 24.0515 39.3793C24.3935 39.3793 24.6722 39.1006 24.6722 38.7586C24.6722 38.4166 24.3935 38.1379 24.0515 38.1379C23.7095 38.1379 23.4308 38.4166 23.4308 38.7586ZM23.4308 27.5862C23.4308 27.9282 23.7095 28.2069 24.0515 28.2069C24.3935 28.2069 24.6722 27.9282 24.6722 27.5862C24.6722 27.2442 24.3935 26.9655 24.0515 26.9655C23.7095 26.9655 23.4308 27.2442 23.4308 27.5862ZM23.4308 33.1724C23.4308 33.5144 23.7095 33.7931 24.0515 33.7931C24.3935 33.7931 24.6722 33.5144 24.6722 33.1724C24.6722 32.8304 24.3935 32.5517 24.0515 32.5517C23.7095 32.5517 23.4308 32.8304 23.4308 33.1724ZM35.8446 36.2758C35.8446 36.6178 36.1233 36.8965 36.4653 36.8965C36.8073 36.8965 37.086 36.6178 37.086 36.2758C37.086 35.9338 36.8073 35.6551 36.4653 35.6551C36.1233 35.6551 35.8446 35.9338 35.8446 36.2758ZM40.2204 32.8664L37.6911 31.4593C37.5155 31.6151 37.3113 31.7361 37.086 31.8162V34.528C37.3113 34.6087 37.5149 34.7303 37.6911 34.8855L40.2204 33.4784C40.2037 33.3785 40.1894 33.2773 40.1894 33.1724C40.1894 33.0675 40.2037 32.9663 40.2204 32.8664ZM43.8825 33.4784L46.4118 34.8855C46.5875 34.7297 46.7917 34.6087 47.017 34.5286V31.8168C46.7917 31.7361 46.5881 31.6145 46.4118 31.4593L43.8825 32.8664C43.8993 32.9663 43.9135 33.0675 43.9135 33.1724C43.9135 33.2773 43.8993 33.3785 43.8825 33.4784ZM40.8256 34.5627L38.2963 35.9698C38.3131 36.0698 38.3273 36.1709 38.3273 36.2758C38.3273 36.3807 38.3131 36.4819 38.2963 36.5824L40.8256 37.9895C41.0013 37.8337 41.2055 37.7127 41.4308 37.632V34.9202C41.2055 34.8396 41.0019 34.7179 40.8256 34.5627ZM42.6722 33.1724C42.6722 32.8304 42.3935 32.5517 42.0515 32.5517C41.7095 32.5517 41.4308 32.8304 41.4308 33.1724C41.4308 33.5144 41.7095 33.7931 42.0515 33.7931C42.3935 33.7931 42.6722 33.5144 42.6722 33.1724ZM43.2773 34.5627C43.1017 34.7185 42.8975 34.8396 42.6722 34.9202V37.6314C42.8975 37.7121 43.101 37.8337 43.2773 37.9889L45.8066 36.5818C45.7899 36.4819 45.7756 36.3807 45.7756 36.2758C45.7756 36.1709 45.7899 36.0698 45.8066 35.9698L43.2773 34.5627ZM43.2773 31.782L45.8066 30.3749C45.7899 30.275 45.7756 30.1738 45.7756 30.0689C45.7756 29.964 45.7899 29.8629 45.8066 29.7623L43.2773 28.3552C43.1017 28.511 42.8975 28.6321 42.6722 28.7127V31.4245C42.8975 31.5052 43.101 31.6269 43.2773 31.782ZM40.8256 31.782C41.0013 31.6262 41.2055 31.5052 41.4308 31.4245V28.7134C41.2055 28.6327 41.0019 28.511 40.8256 28.3558L38.2963 29.7629C38.3131 29.8629 38.3273 29.964 38.3273 30.0689C38.3273 30.1738 38.3131 30.275 38.2963 30.3749L40.8256 31.782ZM41.4308 39.3793C41.4308 39.7213 41.7095 40 42.0515 40C42.3935 40 42.6722 39.7213 42.6722 39.3793C42.6722 39.0373 42.3935 38.7586 42.0515 38.7586C41.7095 38.7586 41.4308 39.0373 41.4308 39.3793ZM47.017 36.2758C47.017 36.6178 47.2957 36.8965 47.6377 36.8965C47.9797 36.8965 48.2583 36.6178 48.2583 36.2758C48.2583 35.9338 47.9797 35.6551 47.6377 35.6551C47.2957 35.6551 47.017 35.9338 47.017 36.2758ZM48.2583 30.0689C48.2583 29.7269 47.9797 29.4483 47.6377 29.4483C47.2957 29.4483 47.017 29.7269 47.017 30.0689C47.017 30.4109 47.2957 30.6896 47.6377 30.6896C47.9797 30.6896 48.2583 30.4109 48.2583 30.0689ZM42.6722 26.9655C42.6722 26.6235 42.3935 26.3448 42.0515 26.3448C41.7095 26.3448 41.4308 26.6235 41.4308 26.9655C41.4308 27.3075 41.7095 27.5862 42.0515 27.5862C42.3935 27.5862 42.6722 27.3075 42.6722 26.9655ZM37.086 30.0689C37.086 29.7269 36.8073 29.4483 36.4653 29.4483C36.1233 29.4483 35.8446 29.7269 35.8446 30.0689C35.8446 30.4109 36.1233 30.6896 36.4653 30.6896C36.8073 30.6896 37.086 30.4109 37.086 30.0689Z" fill="white"/>
</svg>
