<svg width="81" height="80" viewBox="0 0 81 80" fill="none" xmlns="http://www.w3.org/2000/svg">
<rect x="0.5" width="80" height="80" rx="40" fill="#5E7F00"/>
<path d="M27.0105 46.7786V32.0553H22.7708C22.3469 32.0553 22 32.4022 22 32.8261V54.8336C22 55.2576 22.3469 55.6045 22.7708 55.6045H51.6777C52.1017 55.6045 52.4486 55.2576 52.4486 54.8336V49.0906H29.3232C28.0513 49.0906 27.0106 48.05 27.0106 46.7781L27.0105 46.7786Z" fill="white"/>
<path d="M28.5508 31.2843V46.7782C28.5508 47.2021 28.8977 47.549 29.3216 47.549H58.2285C58.6525 47.549 58.9994 47.2021 58.9994 46.7782V29.2413H28.5508V31.2843ZM47.244 34.252C46.9357 33.9822 46.8971 33.4812 47.2055 33.1728C47.4753 32.8645 47.9763 32.8259 48.2846 33.1343L52.8712 37.2969C53.0254 37.451 53.1024 37.6437 53.1024 37.875C53.1024 38.1063 53.0254 38.299 52.8712 38.4531L48.2846 42.6157C48.1305 42.7699 47.9378 42.8084 47.7836 42.8084C47.5909 42.8084 47.3596 42.7313 47.2055 42.5772C46.9357 42.2688 46.9357 41.7678 47.244 41.498L51.2139 37.875L47.244 34.252ZM41.7709 42.2303L44.2761 33.0956C44.3917 32.6716 44.8157 32.4404 45.2397 32.556C45.6636 32.6716 45.8949 33.0956 45.7793 33.5195L43.274 42.6543C43.1969 43.0011 42.8886 43.2324 42.5417 43.2324C42.4646 43.2324 42.3875 43.2324 42.349 43.1939C41.925 43.0782 41.6553 42.6543 41.7709 42.2303ZM34.6791 37.2969L39.2656 33.1343C39.574 32.8645 40.075 32.8645 40.3448 33.1729C40.6146 33.4812 40.6146 33.9823 40.3063 34.2521L36.3364 37.8751L40.2677 41.4981C40.5761 41.7679 40.6146 42.2689 40.3063 42.5773C40.1521 42.7314 39.9594 42.8085 39.7281 42.8085C39.5354 42.8085 39.3427 42.7314 39.2271 42.6158L34.6791 38.4147C34.5249 38.2605 34.4478 38.0678 34.4478 37.8366C34.4478 37.6053 34.5249 37.4511 34.6791 37.2969Z" fill="white"/>
<path d="M58.2285 24.0001H29.3216C28.8977 24.0001 28.5508 24.347 28.5508 24.771V27.7002H58.9994V24.771C58.9994 24.347 58.6525 24.0001 58.2285 24.0001ZM32.3665 27.2377C31.5572 27.2377 30.9019 26.621 30.9019 25.8502C30.9019 25.0793 31.5571 24.4626 32.3665 24.4626C33.176 24.4626 33.8312 25.0793 33.8312 25.8502C33.8312 26.621 33.176 27.2377 32.3665 27.2377ZM36.3364 27.2377C35.527 27.2377 34.8718 26.621 34.8718 25.8502C34.8718 25.0793 35.527 24.4626 36.3364 24.4626C37.1458 24.4626 37.801 25.0793 37.801 25.8502C37.801 26.621 37.1458 27.2377 36.3364 27.2377ZM40.3448 27.2377C39.5354 27.2377 38.8802 26.621 38.8802 25.8502C38.8802 25.0793 39.5354 24.4626 40.3448 24.4626C41.1542 24.4626 41.8094 25.0793 41.8094 25.8502C41.8094 26.621 41.1542 27.2377 40.3448 27.2377Z" fill="white"/>
</svg>
