<svg width="81" height="80" viewBox="0 0 81 80" fill="none" xmlns="http://www.w3.org/2000/svg">
<rect x="0.5" width="80" height="80" rx="40" fill="#00787F"/>
<g clip-path="url(#clip0_1_634)">
<path d="M40.9568 27.0494C40.6668 26.8822 40.3332 26.8822 40.0449 27.0494L29.9441 32.8794C29.6515 33.0483 29.492 33.329 29.492 33.6677V45.3312C29.492 45.6673 29.6515 45.9479 29.9441 46.1168L40.0278 51.9375C40.3443 52.097 40.6344 52.1405 40.9568 51.9494L51.055 46.1168C51.3477 45.9479 51.5072 45.6673 51.5072 45.3312V33.6685C51.5072 33.3299 51.3502 33.0492 51.055 32.8803L40.9568 27.0494ZM40.8408 40.6323V49.6785C40.8408 50.1255 40.1592 50.1255 40.1592 49.6785V40.6323C40.0602 40.6033 39.963 40.5624 39.8691 40.5086L32.1383 36.047C31.751 35.8243 32.0897 35.2348 32.477 35.4566L40.2078 39.9183C40.3895 40.0249 40.6071 40.0249 40.7879 39.9183L48.5188 35.4566C48.9061 35.234 49.2439 35.8243 48.8574 36.047L41.1266 40.5086C41.0345 40.5624 40.9372 40.6033 40.8408 40.6323ZM28.8103 37.2251C28.8103 34.6735 28.7984 32.1227 28.7984 29.5711L23.9152 26.7619C23.5279 26.5392 23.8666 25.9498 24.2539 26.1716L29.0279 28.9279C29.0978 28.9663 29.1848 28.9663 29.2548 28.9279L34.0288 26.1716C34.4161 25.9489 34.7539 26.5392 34.3675 26.7619L29.4826 29.572V32.3701C29.521 32.3437 29.5628 32.3172 29.6063 32.2925L36.281 28.4382V25.3278C36.281 25.1461 36.1991 25.0011 36.0412 24.9098C33.8215 23.6285 31.6034 22.3463 29.3836 21.0649C29.2309 20.9779 29.0526 20.9779 28.8999 21.0675L22.2423 24.9098C22.0853 25.002 22.0026 25.147 22.0026 25.3278V33.0151C22.0026 33.1942 22.0845 33.3418 22.2423 33.4331L28.8103 37.2251ZM36.2801 50.5598L32.6041 48.4364L29.48 50.2305V55.7218C29.48 56.1714 28.7984 56.1714 28.7984 55.7218V50.2279L23.9152 47.4204C23.5279 47.1977 23.8666 46.6082 24.2539 46.83L29.0279 49.5847C29.0978 49.6256 29.1848 49.6256 29.2548 49.5847L31.9242 48.044L29.6054 46.7063C29.1047 46.4163 28.8095 45.9087 28.8095 45.3303V41.7729L22.2414 45.5675C22.0845 45.657 22 45.8046 22 45.9855V53.6701C22 53.8518 22.0819 53.9994 22.2414 54.0881L28.8965 57.933C29.0509 58.02 29.2275 58.02 29.3802 57.933C31.6 56.6517 33.8198 55.3695 36.0404 54.0881C36.1974 53.9986 36.2801 53.851 36.2801 53.6701V50.5598ZM52.1922 41.7763V45.3312C52.1922 45.9113 51.8971 46.4171 51.3946 46.7072L49.0775 48.0448L51.7469 49.5855C51.8169 49.6265 51.9039 49.6265 51.9738 49.5855L56.7478 46.8309C57.1351 46.6082 57.4729 47.1986 57.0865 47.4212L52.1991 50.2313V55.7227C52.1991 56.1722 51.5174 56.1722 51.5174 55.7227V50.2288L48.3976 48.439L44.7216 50.5598V53.6718C44.7216 53.8535 44.8035 54.0011 44.9613 54.0899L51.6189 57.9347C51.7716 58.0218 51.9474 58.0218 52.1001 57.9347C54.3199 56.6534 56.5396 55.3712 58.7603 54.0899C58.9172 54.0003 59 53.8527 59 53.6718V45.9872C59 45.8055 58.9181 45.6587 58.7603 45.5692C56.5686 44.3032 54.3804 43.0389 52.1922 41.7763ZM44.7216 28.4374L51.3937 32.2916C51.4372 32.3155 51.4782 32.3428 51.5174 32.3693V29.5711L46.6351 26.761C46.2478 26.5384 46.5865 25.9489 46.9738 26.1707L51.7478 28.927C51.8177 28.9654 51.9047 28.9654 51.9747 28.927L56.7487 26.1707C57.136 25.948 57.4738 26.5384 57.0873 26.761L52.1999 29.5711C52.1999 32.1227 52.1922 34.6735 52.1922 37.2251C54.3804 35.9599 56.5695 34.6982 58.7603 33.4331C58.9172 33.3409 59 33.1934 59 33.0151V25.3278C59 25.1461 58.9181 25.0011 58.7603 24.9098C56.5405 23.6285 54.3207 22.3463 52.1026 21.0649C51.9482 20.9779 51.7716 20.9779 51.6189 21.0675L44.9613 24.9098C44.8043 25.002 44.7216 25.147 44.7216 25.3278V28.4374Z" fill="white"/>
</g>
<defs>
<clipPath id="clip0_1_634">
<rect width="37" height="37" fill="white" transform="translate(22 21)"/>
</clipPath>
</defs>
</svg>
