<svg width="81" height="80" viewBox="0 0 81 80" fill="none" xmlns="http://www.w3.org/2000/svg">
<rect x="0.5" width="80" height="80" rx="40" fill="#7F0000"/>
<path d="M39.3281 50.6578C39.5161 50.8505 39.6191 51.1082 39.6191 51.3819C39.6191 51.6557 39.5165 51.9133 39.3289 52.1061L36.3835 55.136C36.1931 55.332 35.9397 55.4356 35.6824 55.4356C35.5539 55.4356 35.4247 55.4098 35.3017 55.3578C34.9292 55.1989 34.6887 54.828 34.6887 54.4127V53.0334H27.1C26.216 53.0334 25.4965 52.2919 25.4965 51.3811V44.1797C25.4965 43.2697 26.216 42.529 27.1 42.529C27.984 42.529 28.7059 43.2697 28.7059 44.1797V49.7304H34.6883V48.3511C34.6883 47.935 34.9292 47.5633 35.3025 47.4044C35.6812 47.2444 36.0952 47.3298 36.3839 47.6294L39.3281 50.6578ZM43.8053 31.2808C44.094 31.5803 44.508 31.6658 44.8868 31.5057C45.26 31.3469 45.5009 30.9751 45.5009 30.5591V29.1797H51.4834V34.7305C51.4834 35.6405 52.2037 36.3811 53.0892 36.3811C53.9748 36.3811 54.6927 35.6405 54.6927 34.7305V27.5295C54.6927 26.6187 53.9732 25.8772 53.0892 25.8772H45.5009V24.4979C45.5009 24.0826 45.2608 23.7116 44.8879 23.5528C44.5162 23.3939 44.0909 23.481 43.8057 23.7745L40.8603 26.8045C40.6727 26.9972 40.5701 27.2549 40.5701 27.5287C40.5701 27.8024 40.6727 28.0593 40.8611 28.2528L43.8053 31.2812V31.2808ZM25.7209 39.1672C25.6062 39.2422 25.3214 39.3974 25.1526 39.2224L24.0673 38.1076C23.8988 37.933 24.0489 37.6387 24.1209 37.5206L25.0382 36.0231C25.1158 35.8965 25.1193 35.736 25.0472 35.6062C24.7715 35.1083 24.5565 34.5752 24.4088 34.0225C24.3704 33.8785 24.258 33.7681 24.1166 33.7346L22.441 33.3419C22.3082 33.3108 22 33.2121 22 32.9677V31.3852C22 31.1409 22.3086 31.0421 22.441 31.011L24.1166 30.6183C24.258 30.5853 24.37 30.4748 24.4088 30.3308C24.5576 29.776 24.7727 29.243 25.0472 28.7467C25.1193 28.6165 25.1158 28.456 25.0382 28.3294L24.1221 26.836C24.0496 26.7166 23.8992 26.4199 24.0661 26.2465L25.1542 25.1289C25.3214 24.9551 25.6065 25.1107 25.7225 25.1865L27.1776 26.1284C27.3002 26.2078 27.4553 26.2114 27.581 26.138C28.0729 25.8514 28.5911 25.63 29.1203 25.48C29.2601 25.4405 29.3674 25.3248 29.3995 25.1793L29.781 23.4564C29.8116 23.3193 29.9075 23 30.1445 23H31.6799C31.9188 23 32.0151 23.3193 32.0457 23.4564L32.4272 25.1793C32.4593 25.3248 32.5666 25.4401 32.7064 25.48C33.2395 25.6316 33.7565 25.853 34.2434 26.1376C34.3695 26.2114 34.5246 26.2078 34.6476 26.1284L36.1038 25.1857C36.2186 25.1107 36.5045 24.9551 36.6741 25.1301L37.7587 26.2465C37.9279 26.4207 37.7767 26.7158 37.7038 26.8348L36.7889 28.3302C36.7117 28.4564 36.7082 28.6161 36.7795 28.7459C37.0568 29.2507 37.2718 29.7837 37.4187 30.3312C37.4571 30.4752 37.5695 30.5853 37.7109 30.6187L39.3845 31.0114C39.5177 31.0429 39.8279 31.1417 39.8279 31.3856V32.9681C39.8279 33.2121 39.5177 33.3112 39.3845 33.3423L37.7109 33.735C37.5695 33.7681 37.4571 33.8789 37.4187 34.0229C37.273 34.5676 37.058 35.101 36.7795 35.6078C36.7082 35.7377 36.7117 35.8969 36.7889 36.0231L37.7046 37.5222C37.7771 37.6399 37.9279 37.933 37.7587 38.1072L36.6741 39.2237C36.5041 39.3986 36.2186 39.243 36.1027 39.1672L34.6499 38.2253C34.527 38.1455 34.3715 38.1423 34.2449 38.2161C33.762 38.4995 33.2438 38.7205 32.7045 38.8733C32.5643 38.9128 32.4569 39.0289 32.4248 39.1745L32.0457 40.8985C32.0151 41.0352 31.9188 41.3533 31.6799 41.3533H30.1445C29.9075 41.3533 29.8112 41.0352 29.781 40.8993L29.3995 39.1745C29.3674 39.0289 29.2601 38.9132 29.1199 38.8737C28.5833 38.7217 28.0659 38.5003 27.5818 38.2165C27.5211 38.181 27.4541 38.1633 27.3867 38.1633C27.3139 38.1633 27.241 38.1842 27.1772 38.2253L25.7209 39.168V39.1672ZM27.3342 32.1775C27.3342 34.2083 28.9393 35.8606 30.9122 35.8606C32.885 35.8606 34.4925 34.2083 34.4925 32.1775C34.4925 30.1466 32.8866 28.4919 30.9122 28.4919C28.9377 28.4919 27.3342 30.1454 27.3342 32.1775ZM30.9122 35.0498C32.4519 35.0498 33.7048 33.7612 33.7048 32.1775C33.7048 30.5937 32.4522 29.3027 30.9122 29.3027C29.3721 29.3027 28.1219 30.5921 28.1219 32.1775C28.1219 33.7628 29.3737 35.0498 30.9122 35.0498ZM59 46.1453V47.862C59 48.1515 58.6451 48.2673 58.494 48.3031L56.6766 48.7281C56.5348 48.7612 56.4224 48.872 56.384 49.016C56.2254 49.6103 55.9908 50.1917 55.6868 50.7437C55.6155 50.8735 55.6191 51.0332 55.6958 51.1594L56.6899 52.7874C56.7729 52.9229 56.9453 53.2596 56.7439 53.4648L55.5642 54.6792C55.3656 54.8849 55.0386 54.7078 54.9062 54.6216L53.3258 53.5991C53.2024 53.5192 53.0465 53.516 52.92 53.5906C52.3964 53.8995 51.8323 54.141 51.2433 54.3075C51.103 54.347 50.9957 54.4627 50.9636 54.6087L50.5508 56.4783C50.5159 56.6351 50.4039 57 50.1223 57H48.4545C48.1725 57 48.0609 56.6351 48.026 56.4791L47.6132 54.6087C47.5811 54.4627 47.4734 54.347 47.3336 54.3075C46.7488 54.1418 46.1844 53.9007 45.6564 53.5902C45.5957 53.5547 45.5283 53.537 45.461 53.537C45.3881 53.537 45.3153 53.5579 45.2514 53.5991L43.6698 54.6224C43.5382 54.7083 43.2112 54.8853 43.0118 54.6784L41.8321 53.464C41.6319 53.2596 41.8039 52.9229 41.8881 52.7862L42.8814 51.1594C42.9589 51.0324 42.9621 50.8719 42.8896 50.7416C42.5896 50.2026 42.355 49.622 42.1932 49.0156C42.1548 48.8712 42.0424 48.7608 41.9006 48.7277L40.0844 48.3027C39.9321 48.2669 39.5776 48.1515 39.5776 47.8616V46.1448C39.5776 45.8546 39.9321 45.7396 40.0833 45.7038L41.9006 45.2788C42.0424 45.2457 42.1548 45.1349 42.1932 44.9909C42.355 44.3849 42.5896 43.8043 42.8896 43.2653C42.9621 43.135 42.9589 42.9746 42.8814 42.8475L41.8873 41.2195C41.8043 41.084 41.6319 40.7473 41.8333 40.5421L43.013 39.3277C43.2116 39.1216 43.5386 39.299 43.6714 39.3853L45.2518 40.4078C45.3752 40.4877 45.5311 40.4909 45.6576 40.4163C46.1812 40.1074 46.7453 39.8663 47.3343 39.6994C47.4746 39.6599 47.5819 39.5442 47.614 39.3982L48.0268 37.5286C48.0617 37.3718 48.1737 37.0069 48.4553 37.0069H50.1231C50.4051 37.0069 50.5167 37.3718 50.5516 37.5278L50.9644 39.3982C50.9965 39.5442 51.1042 39.6599 51.244 39.6994C51.8288 39.8651 52.3932 40.1062 52.9212 40.4167C53.0477 40.4909 53.2032 40.4877 53.3262 40.4078L54.9078 39.3845C55.039 39.299 55.366 39.122 55.5658 39.3285L56.7455 40.5429C56.9453 40.7473 56.7733 41.084 56.6895 41.2207L55.6962 42.8475C55.6187 42.9746 55.6155 43.135 55.688 43.2648C55.988 43.8039 56.2226 44.3849 56.3844 44.9909C56.4228 45.1353 56.5352 45.2457 56.677 45.2788L58.4928 45.7038C58.6451 45.74 59 45.8554 59 46.1453ZM53.1421 47.0024C53.1421 44.8159 51.4132 43.037 49.288 43.037C47.1628 43.037 45.4359 44.8159 45.4359 47.0024C45.4359 49.189 47.164 50.9699 49.288 50.9699C51.4121 50.9699 53.1421 49.1902 53.1421 47.0024ZM49.288 43.8483C47.5983 43.8483 46.2239 45.2631 46.2239 47.0024C46.2239 48.7418 47.5983 50.1586 49.288 50.1586C50.9777 50.1586 52.3541 48.7426 52.3541 47.0024C52.3541 45.2623 50.9785 43.8483 49.288 43.8483Z" fill="white"/>
</svg>
