<svg width="81" height="80" viewBox="0 0 81 80" fill="none" xmlns="http://www.w3.org/2000/svg">
<rect x="0.5" width="80" height="80" rx="40" fill="#9F8F00"/>
<path d="M31.5652 28.1003L32.9681 29.5334C33.4119 29.9872 32.7303 30.656 32.2864 30.2102L30.8439 28.7372C28.4502 30.9665 26.7937 33.8805 26.0883 37.0573L31.2481 38.0525C32.3736 33.3312 36.4872 29.9235 41.3063 29.7086V24.4299C37.7554 24.5334 34.3234 25.8312 31.5652 28.1003ZM25.5176 25.2739L28.6088 25.2898C28.7435 25.2898 28.8624 25.3455 28.9496 25.4331L30.4159 26.9299C30.8598 27.3837 30.1781 28.0525 29.7343 27.6067L28.4106 26.2532L25.5493 26.2373C25.2164 27.5907 23.5282 28.0844 22.5295 27.0812C21.3961 25.9506 22.2045 24 23.7977 24C24.5982 24 25.2878 24.5334 25.5176 25.2739ZM31.9852 50.9107L32.9364 49.9394C33.3723 49.4856 34.0619 50.1623 33.618 50.6161L32.6986 51.5556C37.2006 55.3136 43.6524 55.9664 48.8756 52.941C49.803 52.4075 50.6669 51.7626 51.4436 51.0381L49.0738 48.6416C43.9694 53.2992 35.8611 52.0572 32.4053 46.0302C31.1292 43.8327 30.725 41.3407 31.0658 39.0079L27.7607 38.371C27.2534 41.5716 27.8479 44.8598 29.4885 47.7181C30.1781 48.9282 31.0262 49.9951 31.9852 50.9107ZM26.0962 53.9123L29.0685 53.8964L30.9628 51.9617C31.4066 51.5079 32.0883 52.1846 31.6444 52.6384L29.6074 54.7164C29.5203 54.804 29.4014 54.8597 29.2666 54.8597L25.9852 54.8757C25.5018 56.062 23.9641 56.3884 23.0526 55.4728C21.9271 54.3343 22.7276 52.3916 24.3208 52.3916C25.2085 52.3916 25.9535 53.0445 26.0962 53.9123ZM49.7395 34.7165L48.836 35.6401C48.3921 36.0939 47.7105 35.4172 48.1543 34.9633L49.1372 33.9602C47.2508 31.8423 44.5559 30.664 41.7818 30.664C41.7739 30.664 41.766 30.664 41.758 30.664C40.0936 30.664 38.4133 31.086 36.8756 31.9777C36.8518 31.9936 36.828 32.0016 36.8122 32.0175C34.474 33.3869 32.8967 35.5764 32.2468 38.0127C30.836 43.3072 33.9588 48.7451 39.2296 50.1623C44.5004 51.5795 49.9139 48.4426 51.3247 43.148C51.9747 40.6958 51.7052 37.9888 50.3419 35.6242C50.1517 35.3136 49.9535 35.0111 49.7395 34.7165ZM55.4938 31.6672L52.7197 31.6831L50.8967 33.5461C50.4529 34 49.7712 33.3232 50.2151 32.8694L52.1808 30.863C52.2679 30.7754 52.3868 30.7197 52.5216 30.7197L55.4542 30.7038C55.7712 29.3344 57.4753 28.8248 58.474 29.828C59.5995 30.9665 58.799 32.9092 57.2059 32.9092C56.4053 32.9172 55.7237 32.3996 55.4938 31.6672ZM37.8347 44.5493C40.0143 46.7388 43.5493 46.7388 45.729 44.5493C47.9086 42.3598 47.9086 38.8089 45.729 36.6194C43.5493 34.4299 40.0143 34.4299 37.8347 36.6194C35.655 38.8089 35.655 42.3598 37.8347 44.5493ZM41.7818 47.1528C38.1675 47.1528 35.2428 44.2149 35.2428 40.5843C35.2428 36.9538 38.1675 34.0159 41.7818 34.0159C45.3961 34.0159 48.3208 36.9538 48.3208 40.5843C48.3208 44.2149 45.3961 47.1528 41.7818 47.1528ZM39.4833 43.0764C39.1504 42.5429 39.9668 42.0334 40.2996 42.5748C40.7752 43.3391 42.194 43.4744 42.9628 42.8932C43.5731 42.4315 43.478 41.699 42.9866 41.4203C41.8769 40.7913 39.2217 41.3327 39.2217 39.0159C39.2217 37.3678 41.441 36.4522 43.1134 37.2563C43.5255 37.4554 43.8664 37.7499 44.0804 38.1003C44.4133 38.6337 43.5969 39.1432 43.264 38.6098C42.7884 37.8375 41.3697 37.7101 40.6008 38.2913C40.3472 38.4824 40.1887 38.7452 40.1887 39.0159C40.1887 40.7834 44.3498 39.3582 44.3498 42.1687C44.3498 43.2754 43.3432 44.0318 42.2732 44.191V45.0349C42.2732 45.6719 41.3142 45.6719 41.3142 45.0349V44.191C40.5691 44.0716 39.8637 43.6974 39.4833 43.0764Z" fill="white"/>
</svg>
