<svg width="50" height="50" viewBox="0 0 50 50" fill="none" xmlns="http://www.w3.org/2000/svg">
<path d="M44.9107 25.0304C44.7572 24.5887 44.4189 24.2352 43.982 24.0609C43.0155 23.6757 41.4855 23.92 40.3546 25.8791L37.7663 30.3622C36.995 29.9513 35.8424 29.8848 34.4198 30.7061L31.1581 32.5896C29.3042 33.1017 28.0885 34.03 27.5442 35.3496C27.0846 36.4635 27.2072 37.5913 27.2881 38.3374C27.3102 38.5439 27.3298 38.7222 27.3298 38.84V40.2626C26.735 40.4043 26.2898 40.937 26.2898 41.5748V43.6483C26.2898 44.3935 26.8963 45 27.642 45H34.9685C35.7137 45 36.3202 44.3935 36.3202 43.6483V41.5748C36.3202 40.937 35.875 40.4043 35.2802 40.2626V38.84C35.2802 38.1443 35.3968 38.0774 35.8859 37.7948L38.1081 36.5117C38.9437 36.0296 39.5572 35.4157 40.0398 34.58L44.7815 26.3674C45.0168 25.9596 45.0637 25.4722 44.9107 25.0304ZM35.1863 43.6474C35.1863 43.7678 35.0885 43.8657 34.9681 43.8657H27.642C27.5215 43.8657 27.4237 43.7678 27.4237 43.6474V41.5739C27.4237 41.4535 27.5215 41.3557 27.642 41.3557H34.9685C35.0889 41.3557 35.1868 41.4535 35.1868 41.5739L35.1863 43.6474ZM43.7998 25.8L39.0581 34.0126C38.6742 34.6778 38.2063 35.1457 37.5411 35.5296L35.3189 36.8126C34.6324 37.2091 34.1463 37.5865 34.1463 38.8396V40.2222H28.4633V38.8396C28.4633 38.6604 28.4407 38.4539 28.415 38.2148C28.2589 36.7765 28.0229 34.603 31.5246 33.6643C31.5724 33.6517 31.6185 33.6326 31.6611 33.6078L34.9863 31.6878C36.2429 30.9626 37.0994 31.1391 37.512 31.5687C37.5198 31.5774 37.5276 31.5861 37.5359 31.5943C37.5511 31.6113 37.5659 31.6291 37.5802 31.647C37.6689 31.7596 37.7028 31.8974 37.6768 32.0352C37.6502 32.173 37.5672 32.2883 37.4433 32.36L33.8576 34.43C33.5863 34.5865 33.4937 34.933 33.6502 35.2043C33.8068 35.4757 34.1533 35.5683 34.4246 35.4117L38.0102 33.3417C38.4176 33.1065 38.702 32.7083 38.7902 32.2491C38.862 31.8748 38.7981 31.49 38.6146 31.1609L41.3368 26.4461C42.1046 25.1157 42.9902 24.8857 43.5624 25.1139C43.6955 25.167 43.7937 25.2691 43.8398 25.4017C43.8855 25.5343 43.8715 25.6757 43.7998 25.8ZM22.6698 40.2617V38.8391C22.6698 38.7213 22.6894 38.543 22.7115 38.3365C22.7929 37.5904 22.915 36.4626 22.4555 35.3487C21.9111 34.0291 20.6955 33.1009 18.8411 32.5887L15.5794 30.7052C14.1568 29.8839 13.0042 29.9504 12.2328 30.3613L9.64459 25.8783C8.51372 23.9196 6.98372 23.6743 6.0172 24.06C5.58024 24.2343 5.24198 24.5878 5.0885 25.0296C4.93546 25.4713 4.98242 25.9583 5.21763 26.3657L9.95937 34.5783C10.442 35.4139 11.0559 36.0278 11.8911 36.51L14.1133 37.793C14.6029 38.0757 14.7189 38.1426 14.7189 38.8383V40.2609C14.1242 40.4026 13.6789 40.9352 13.6789 41.573V43.6465C13.6789 44.3917 14.2855 44.9983 15.0307 44.9983H22.3572C23.1029 44.9983 23.7094 44.3917 23.7094 43.6465V41.573C23.7098 40.9361 23.2646 40.4035 22.6698 40.2617ZM14.6807 36.8126L12.4585 35.5296C11.7933 35.1457 11.3255 34.6778 10.9415 34.0126L6.19981 25.8C6.12807 25.6761 6.11415 25.5348 6.16024 25.4022C6.20633 25.2696 6.30459 25.1674 6.43763 25.1143C7.00981 24.8861 7.89546 25.1161 8.66328 26.4465L11.3855 31.1609C11.202 31.4904 11.1381 31.8752 11.2098 32.2491C11.2981 32.7083 11.5824 33.1065 11.9894 33.3417L15.575 35.4117C15.8463 35.5683 16.1928 35.4757 16.3494 35.2043C16.5059 34.9335 16.4129 34.5865 16.142 34.43L12.5563 32.36C12.4324 32.2883 12.3494 32.173 12.3233 32.0352C12.2968 31.8974 12.3311 31.7596 12.4194 31.647C12.4333 31.6296 12.4476 31.6122 12.4629 31.5952C12.4715 31.5861 12.4802 31.577 12.4885 31.5678C12.9015 31.1391 13.7572 30.9626 15.0133 31.6878L18.3385 33.6078C18.3815 33.6326 18.4272 33.6517 18.475 33.6643C21.9768 34.6026 21.7407 36.7761 21.5846 38.2143C21.5585 38.4535 21.5363 38.66 21.5363 38.8396V40.2222H15.8533V38.8396C15.8533 37.5865 15.3672 37.2087 14.6807 36.8126ZM22.5763 43.6474C22.5763 43.7678 22.4785 43.8657 22.3581 43.8657H15.0315C14.9111 43.8657 14.8133 43.7678 14.8133 43.6474V41.5739C14.8133 41.4557 14.9133 41.3557 15.0315 41.3557H22.3581C22.4785 41.3557 22.5763 41.4535 22.5763 41.5739V43.6474ZM19.8985 23.78V28.4243C19.8985 29.9591 21.1233 31.2104 22.6463 31.26L23.0729 32.4935C23.152 32.7217 23.3668 32.8748 23.6085 32.8748H26.3907C26.6324 32.8748 26.8472 32.7217 26.9263 32.4935L27.3533 31.26C28.8763 31.2104 30.1011 29.9596 30.1011 28.4248V23.78C30.1011 22.4726 30.5472 21.3843 31.4655 20.4535C33.1511 18.7439 34.0794 16.4804 34.0794 14.0796C34.0794 9.07304 30.0063 5 24.9998 5C19.9933 5 15.9202 9.07304 15.9202 14.0796C15.9202 16.4804 16.8485 18.7439 18.5342 20.4535C19.4524 21.3843 19.8985 22.4726 19.8985 23.78ZM21.0324 26.2287H28.9676V27.6126H21.0324V26.2287ZM24.0124 31.7409L23.8476 31.2643H26.152L25.9872 31.7409H24.0124ZM27.2607 30.1309H22.7389C21.9081 30.1309 21.2163 29.5335 21.065 28.7465H28.9346C28.7837 29.5335 28.0915 30.1309 27.2607 30.1309ZM24.9998 6.13348C29.3811 6.13348 32.9459 9.69783 32.9459 14.0796C32.9459 16.1804 32.1333 18.1617 30.6581 19.6578C29.5363 20.7957 28.9672 22.1826 28.9672 23.78V25.0948H21.0324V23.78C21.0324 22.1822 20.4637 20.7952 19.3415 19.6578C17.8663 18.1617 17.0537 16.1809 17.0537 14.0796C17.0537 9.69826 20.6185 6.13348 24.9998 6.13348ZM24.9998 19.8078C28.1585 19.8078 30.7285 17.2378 30.7285 14.0791C30.7285 10.9204 28.1585 8.35043 24.9998 8.35043C21.8411 8.35043 19.2711 10.9204 19.2711 14.0791C19.2711 17.2378 21.8411 19.8078 24.9998 19.8078ZM24.9998 9.48435C27.5337 9.48435 29.595 11.5457 29.595 14.0796C29.595 16.6135 27.5337 18.6748 24.9998 18.6748C22.4659 18.6748 20.4046 16.6135 20.4046 14.0796C20.4046 11.5457 22.4659 9.48435 24.9998 9.48435ZM25.7563 15.0991C25.7563 14.8491 25.5533 14.6461 25.3033 14.6461H24.6963C23.8215 14.6461 23.1098 13.9343 23.1098 13.0596C23.1098 12.2743 23.6833 11.6204 24.4333 11.4948V11.0148C24.4333 10.7017 24.6872 10.4478 25.0002 10.4478C25.3133 10.4478 25.5672 10.7017 25.5672 11.0148V11.4726H26.3237C26.6368 11.4726 26.8907 11.7265 26.8907 12.0396C26.8907 12.3526 26.6368 12.6065 26.3237 12.6065H24.6968C24.4468 12.6065 24.2437 12.8096 24.2437 13.0596C24.2437 13.3096 24.4468 13.5126 24.6968 13.5126H25.3037C26.1785 13.5126 26.8902 14.2243 26.8902 15.0991C26.8902 15.8843 26.3168 16.5383 25.5668 16.6639V17.1439C25.5668 17.457 25.3129 17.7109 24.9998 17.7109C24.6868 17.7109 24.4329 17.457 24.4329 17.1439V16.6861H23.6763C23.3633 16.6861 23.1094 16.4322 23.1094 16.1191C23.1094 15.8061 23.3633 15.5522 23.6763 15.5522H25.3033C25.5533 15.5522 25.7563 15.3491 25.7563 15.0991ZM34.6863 8.48696C34.5298 8.21565 34.6228 7.86913 34.8937 7.71261L37.8937 5.98043C38.165 5.82391 38.5115 5.91696 38.6681 6.18783C38.8246 6.45913 38.7315 6.80565 38.4607 6.96217L35.4607 8.69435C35.3715 8.74565 35.2742 8.77044 35.1776 8.77044C34.9815 8.77044 34.7911 8.6687 34.6863 8.48696ZM11.332 6.18783C11.4885 5.91696 11.8355 5.82391 12.1063 5.98043L15.1063 7.71261C15.3772 7.86913 15.4702 8.21565 15.3137 8.48696C15.2085 8.6687 15.0181 8.77044 14.8224 8.77044C14.7263 8.77044 14.6289 8.74609 14.5394 8.69435L11.5394 6.96217C11.2681 6.80565 11.1755 6.45913 11.332 6.18783ZM36.7515 13.5126H40.2155C40.5285 13.5126 40.7824 13.7665 40.7824 14.0796C40.7824 14.3926 40.5285 14.6465 40.2155 14.6465H36.7515C36.4385 14.6465 36.1846 14.3926 36.1846 14.0796C36.1846 13.7665 36.4385 13.5126 36.7515 13.5126ZM34.6859 19.6717C34.8424 19.4009 35.1894 19.3078 35.4602 19.4643L38.4602 21.1965C38.7311 21.353 38.8242 21.6996 38.6676 21.9709C38.5624 22.1526 38.372 22.2543 38.1763 22.2543C38.0802 22.2543 37.9828 22.23 37.8933 22.1783L34.8933 20.4461C34.6224 20.2896 34.5294 19.943 34.6859 19.6717ZM15.3133 19.6713C15.4698 19.9426 15.3768 20.2891 15.1059 20.4457L12.1059 22.1778C12.0168 22.2291 11.9194 22.2539 11.8229 22.2539C11.6268 22.2539 11.4363 22.1522 11.3315 21.9704C11.175 21.6991 11.2681 21.3526 11.5389 21.1961L14.5389 19.4639C14.8102 19.3074 15.1568 19.4004 15.3133 19.6713ZM9.2172 14.0791C9.2172 13.7661 9.47111 13.5122 9.78415 13.5122H13.2481C13.5611 13.5122 13.815 13.7661 13.815 14.0791C13.815 14.3922 13.5611 14.6461 13.2481 14.6461H9.78415C9.47111 14.6461 9.2172 14.3922 9.2172 14.0791Z" fill="#0129AC"/>
</svg>
