<svg width="50" height="50" viewBox="0 0 50 50" fill="none" xmlns="http://www.w3.org/2000/svg">
<path d="M13.6666 5C12.5702 5 11.6692 5.87877 11.6692 6.99869V24.9947C11.6692 26.117 12.5702 26.9934 13.6666 26.9934H24.9556C25.6617 27.7262 26.3983 28.4504 27.1067 29.1588C27.7905 29.8426 28.8902 29.8309 29.5624 29.1588C30.2749 28.4479 31.0029 27.7158 31.7082 26.9934H43.0024C44.0989 26.9934 44.9998 26.1068 44.9998 24.9947V6.99869C44.9998 5.90221 44.1171 5 43.0024 5H13.6666ZM13.6666 6.33463H43.0024C43.3834 6.33463 43.6665 6.64116 43.6665 6.99869V24.9947C43.6665 25.3548 43.3834 25.6601 43.0024 25.6601H31.4322C31.2508 25.659 31.0769 25.7319 30.9504 25.8619C30.1966 26.6385 29.3972 27.4352 28.6171 28.2134C28.4643 28.3662 28.2125 28.3791 28.0468 28.2134C27.2612 27.4279 26.46 26.6455 25.7187 25.8658C25.5929 25.7344 25.4188 25.66 25.2369 25.6601H13.6666C13.3013 25.6601 13.0026 25.3757 13.0026 24.9947V6.99869C13.0026 6.63856 13.2857 6.33463 13.6666 6.33463ZM20.2369 9.00129C18.6265 9.00129 17.3385 10.3121 17.3385 11.9101C17.3385 12.5667 17.5617 13.2055 17.9544 13.7031C16.5962 14.4789 15.664 15.9913 15.664 17.7018V18.3619C15.664 19.8297 16.8446 20.9986 18.2877 20.9986H22.19C22.5217 20.9986 22.8236 20.9422 23.1171 20.8281C23.4791 22.0806 24.6356 23.0025 25.9986 23.0025H30.664C32.0269 23.0025 33.1926 22.0857 33.5481 20.8281C33.8417 20.9423 34.1473 20.9986 34.479 20.9986H38.3814C39.8244 20.9986 40.9985 19.8219 40.9985 18.3619V17.7018C40.9985 15.9902 40.0925 14.5084 38.7134 13.7018C39.0903 13.2236 39.3254 12.5881 39.3254 11.9101C39.3254 10.3016 38.0347 9.00129 36.427 9.00129C34.8192 9.00129 33.5337 10.3121 33.5337 11.9101C33.5337 12.5868 33.7574 13.2075 34.147 13.7044C33.3557 14.161 32.7308 14.8377 32.328 15.6575C31.9089 15.1797 31.4316 14.7991 30.8671 14.4961C31.3687 13.9128 31.6692 13.1579 31.6692 12.3333C31.6692 10.5003 30.1834 9.00129 28.3319 9.00129C26.4805 9.00129 24.9999 10.5003 24.9999 12.3333C24.9999 13.1584 25.3115 13.9309 25.7981 14.4974C25.2334 14.8008 24.7381 15.2026 24.3398 15.6575C23.9404 14.8462 23.3116 14.1603 22.5195 13.7031C22.9097 13.2063 23.1353 12.5865 23.1353 11.9101C23.1353 10.3121 21.8473 9.00129 20.2369 9.00129ZM20.2369 10.3346C21.0908 10.3346 21.802 11.028 21.802 11.9101C21.802 12.7922 21.0954 13.4895 20.2369 13.4895C19.3784 13.4895 18.6718 12.7922 18.6718 11.9101C18.6718 11.028 19.383 10.3346 20.2369 10.3346ZM28.3319 10.3346C29.4262 10.3346 30.3345 11.2208 30.3345 12.3333C30.3345 13.4458 29.4288 14.3307 28.3319 14.3307C27.2351 14.3307 26.3345 13.4458 26.3345 12.3333C26.3345 11.2208 27.2377 10.3346 28.3319 10.3346ZM36.4296 10.3346C37.2861 10.3346 37.9947 11.028 37.9947 11.9101C37.9947 12.7922 37.2861 13.4895 36.4296 13.4895C35.573 13.4895 34.8645 12.7922 34.8645 11.9101C34.8645 11.028 35.573 10.3346 36.4296 10.3346ZM21.3228 14.6093C22.3689 14.9842 23.2064 15.905 23.4244 17.108C23.1474 17.7589 23.0025 18.4553 23.0025 19.2083V19.3736C22.7822 19.5553 22.5023 19.6653 22.19 19.6653H18.2877C17.5678 19.6653 16.9986 19.0773 16.9986 18.3619V17.7018C16.9986 16.2522 17.9286 15.0423 19.151 14.6106C19.4984 14.7526 19.8626 14.8229 20.2369 14.8229C20.6127 14.8229 20.9926 14.7497 21.3228 14.6093ZM37.5181 14.6107C38.7591 15.0601 39.6652 16.2515 39.6652 17.7018V18.362C39.6652 19.0956 39.0857 19.6653 38.3814 19.6653H34.479C34.1668 19.6653 33.8869 19.5579 33.6665 19.3763V19.2083C33.6665 18.473 33.513 17.7398 33.2434 17.1171C33.4379 15.9758 34.2472 14.9964 35.341 14.6132C35.6701 14.7451 36.0522 14.8229 36.427 14.8229C36.8021 14.8229 37.1883 14.7428 37.5181 14.6107ZM29.6301 15.4036C31.225 15.9514 32.3332 17.4554 32.3332 19.2083V19.9908C32.3332 20.9142 31.5974 21.6692 30.664 21.6692H25.9986C25.0652 21.6692 24.3306 20.9038 24.3306 19.9908V19.2083C24.3306 17.4654 25.4519 15.9358 27.039 15.4062C27.451 15.5814 27.8838 15.664 28.3319 15.664C28.7801 15.664 29.2031 15.5804 29.6301 15.4036ZM37.3501 29.6574C36.8182 29.6461 36.2455 29.7786 35.7876 30.0598L30.2981 33.2408C30.0847 31.9743 28.9606 31.0142 27.6132 31.0142H18.0364C17.9469 31.0143 17.8583 31.0326 17.776 31.0676L14.8138 32.3332H13.0026V32.2642C13.0026 31.2217 12.1843 30.3345 11.1224 30.3345H6.87499C5.80781 30.3345 5 31.2218 5 32.2642V43.0715C5 44.1295 5.83125 44.9998 6.87499 44.9998H11.1224C12.1243 44.9998 12.9379 44.197 12.9961 43.1939H14.7487C14.9766 43.1939 15.3756 43.2855 15.9648 43.4504C16.554 43.6152 17.2739 43.8425 18.0364 44.0702C19.5615 44.5254 21.2418 44.9998 22.6184 44.9998C22.6284 45.0001 22.6384 45.0001 22.6484 44.9998C23.5735 44.9545 25.0693 44.2487 26.6835 43.3371C28.3323 42.4059 30.2225 41.1892 32.0181 39.9803C35.5759 37.5851 38.6959 35.2562 38.7551 35.2121C40.1825 34.3843 40.6529 32.5641 39.8384 31.147C39.4311 30.4385 38.7363 29.9064 37.8631 29.716C37.7005 29.6806 37.5274 29.6612 37.3501 29.6574ZM37.3827 30.9934C37.9016 31.0281 38.3942 31.3123 38.6809 31.8111C39.1296 32.5917 38.8782 33.5963 38.0858 34.0559C38.0636 34.0695 38.0424 34.0842 38.022 34.1001C38.022 34.1001 34.8326 36.4782 31.2746 38.8736C29.4956 40.0712 27.6247 41.2742 26.0286 42.1756C24.4371 43.0744 23.1125 43.6613 22.5937 43.6613C21.5062 43.6613 19.9135 43.2359 18.4205 42.7902C17.6697 42.566 16.9528 42.3323 16.3294 42.1652C15.7622 42.0132 15.2172 41.8605 14.7487 41.8605H13.0026V33.6665H14.9505C15.0405 33.6662 15.1295 33.6476 15.2122 33.6119L18.1692 32.3476H27.6132C28.4038 32.3476 29.0012 32.9661 29.0012 33.677C29.0012 34.3878 28.4038 34.9999 27.6132 34.9999H20.9986C20.1089 34.9999 20.1089 36.3345 20.9986 36.3345H27.6132C28.6202 36.3345 29.5361 35.7828 30.0012 34.9543L36.4569 31.2108C36.7541 31.0385 37.0713 30.9726 37.3827 30.9934ZM6.87499 31.6692H11.1224C11.4201 31.6692 11.6692 31.9238 11.6692 32.2642C11.6672 35.8614 11.6692 39.4679 11.6692 43.0715C11.6692 43.404 11.4201 43.6665 11.1224 43.6665H6.87499C6.57726 43.6665 6.33463 43.4119 6.33463 43.0715V32.2642C6.33463 31.929 6.57726 31.6692 6.87499 31.6692ZM8.33332 40.9999C7.96513 40.9999 7.66666 41.2983 7.66666 41.6665C7.66666 42.0347 7.96513 42.3332 8.33332 42.3332C8.70151 42.3332 8.99998 42.0347 8.99998 41.6665C8.99998 41.2983 8.70151 40.9999 8.33332 40.9999Z" fill="#0129AC"/>
</svg>
