<svg width="50" height="50" viewBox="0 0 50 50" fill="none" xmlns="http://www.w3.org/2000/svg">
<path fill-rule="evenodd" clip-rule="evenodd" d="M34.492 5.58747V7.97913C34.9805 7.68663 35.5376 7.52866 36.1069 7.52126C36.9016 7.5311 37.6605 7.85372 38.219 8.41921C38.7775 8.9847 39.0907 9.7475 39.0907 10.5423C39.0907 11.3371 38.7775 12.0999 38.219 12.6654C37.6605 13.2309 36.9016 13.5535 36.1069 13.5634C35.5376 13.5558 34.9805 13.3978 34.492 13.1055V15.5166H37.7231C37.9088 15.5167 38.0869 15.5906 38.2182 15.7219C38.3496 15.8532 38.4234 16.0313 38.4235 16.2171C38.4235 17.5999 37.843 17.7198 37.843 18.5347C37.843 18.9644 38.0137 19.3765 38.3176 19.6804C38.6214 19.9843 39.0336 20.155 39.4633 20.155C39.8931 20.155 40.3052 19.9843 40.6091 19.6804C40.913 19.3765 41.0837 18.9644 41.0837 18.5347C41.0837 17.7198 40.5036 17.5999 40.5036 16.2171C40.5036 16.125 40.5218 16.0338 40.557 15.9488C40.5923 15.8638 40.644 15.7865 40.7091 15.7214C40.7742 15.6564 40.8516 15.6048 40.9367 15.5697C41.0218 15.5345 41.1129 15.5165 41.205 15.5166H44.4212C44.2523 12.9387 43.152 10.5102 41.3252 8.68345C39.4985 6.85671 37.0699 5.75638 34.492 5.58747ZM13.1402 24.6652H16.3647C16.4567 24.6652 16.5478 24.6833 16.6327 24.7185C16.7177 24.7537 16.7949 24.8053 16.8599 24.8704C16.9249 24.9354 16.9764 25.0127 17.0116 25.0976C17.0467 25.1826 17.0648 25.2737 17.0647 25.3657V26.3749C17.8811 26.5884 18.6643 26.9129 19.3925 27.3393L20.1064 26.6254C20.1714 26.5603 20.2486 26.5087 20.3335 26.4735C20.4185 26.4383 20.5096 26.4202 20.6015 26.4202C20.6935 26.4202 20.7846 26.4383 20.8695 26.4735C20.9545 26.5087 21.0317 26.5603 21.0967 26.6254L23.3763 28.905C23.4414 28.97 23.493 29.0472 23.5282 29.1321C23.5634 29.2171 23.5815 29.3082 23.5815 29.4001C23.5815 29.4921 23.5634 29.5832 23.5282 29.6681C23.493 29.7531 23.4414 29.8303 23.3763 29.8953L22.6624 30.6092C23.0889 31.3372 23.4132 32.1205 23.6263 32.9369H24.636C24.728 32.9369 24.8191 32.9549 24.904 32.9901C24.989 33.0252 25.0662 33.0768 25.1313 33.1418C25.1963 33.2068 25.2479 33.284 25.2832 33.3689C25.3184 33.4539 25.3365 33.545 25.3365 33.6369V36.8615C25.3365 36.9534 25.3184 37.0445 25.2832 37.1294C25.2479 37.2144 25.1963 37.2916 25.1313 37.3566C25.0662 37.4216 24.989 37.4732 24.904 37.5083C24.8191 37.5435 24.728 37.5615 24.636 37.5615H23.6263C23.4132 38.3779 23.0889 39.1612 22.6624 39.8892L23.3763 40.6022C23.4414 40.6672 23.493 40.7444 23.5282 40.8293C23.5634 40.9143 23.5815 41.0054 23.5815 41.0973C23.5815 41.1893 23.5634 41.2804 23.5282 41.3653C23.493 41.4503 23.4414 41.5275 23.3763 41.5925L22.9883 41.9804C23.3319 42.1825 23.724 42.2871 24.1226 42.2827H29.7647C30.3383 42.2807 30.8877 42.0519 31.2934 41.6464C31.699 41.2409 31.9278 40.6915 31.93 40.1179V37.9536H26.9527C26.8592 37.956 26.7662 37.9397 26.6792 37.9055C26.5921 37.8714 26.5127 37.8202 26.4458 37.755C26.3788 37.6897 26.3256 37.6117 26.2893 37.5256C26.2529 37.4394 26.2342 37.3469 26.2342 37.2534C26.2342 37.1599 26.2529 37.0673 26.2893 36.9811C26.3256 36.895 26.3788 36.817 26.4458 36.7517C26.5127 36.6865 26.5921 36.6353 26.6792 36.6012C26.7662 36.5671 26.8592 36.5507 26.9527 36.5531H31.9569C32.3624 31.3564 37.2096 29.499 37.5814 23.7504H35.1902C35.4833 24.2388 35.6418 24.7961 35.6494 25.3657C35.6494 26.1668 35.3312 26.9352 34.7647 27.5017C34.1981 28.0682 33.4298 28.3865 32.6286 28.3865C31.8274 28.3865 31.0591 28.0682 30.4926 27.5017C29.926 26.9352 29.6078 26.1668 29.6078 25.3657C29.6152 24.7965 29.773 24.2394 30.0652 23.7508H26.9541C26.8614 23.7512 26.7696 23.7332 26.6839 23.6978C26.5983 23.6624 26.5205 23.6104 26.4552 23.5447C26.3898 23.479 26.3381 23.401 26.3031 23.3152C26.2681 23.2294 26.2505 23.1375 26.2513 23.0448C26.2514 23.0139 26.2534 22.9829 26.2573 22.9522V19.1097C26.2573 18.924 26.3311 18.746 26.4623 18.6147C26.5936 18.4834 26.7717 18.4097 26.9573 18.4097C28.3402 18.4097 28.4606 18.9897 29.2754 18.9897C29.7051 18.9897 30.1173 18.819 30.4211 18.5152C30.725 18.2113 30.8957 17.7991 30.8957 17.3694C30.8957 16.9396 30.725 16.5275 30.4211 16.2236C30.1173 15.9197 29.7051 15.749 29.2754 15.749C28.4606 15.749 28.3402 16.3291 26.9573 16.3291C26.8654 16.3291 26.7743 16.311 26.6893 16.2758C26.6044 16.2406 26.5272 16.189 26.4622 16.1239C26.3972 16.0589 26.3456 15.9816 26.3105 15.8967C26.2753 15.8117 26.2573 15.7206 26.2573 15.6286V12.4245C23.5616 12.6023 21.0344 13.7985 19.188 15.7707C17.3416 17.7428 16.3143 20.3433 16.3143 23.0448C16.3096 23.2274 16.2337 23.401 16.1029 23.5284C15.9721 23.6559 15.7967 23.7273 15.614 23.7273C15.4314 23.7273 15.2559 23.6559 15.1251 23.5284C14.9943 23.401 14.9185 23.2274 14.9138 23.0448C14.9138 21.4632 15.2253 19.897 15.8306 18.4357C16.4359 16.9744 17.3231 15.6467 18.4416 14.5283C19.56 13.4099 20.8878 12.5228 22.3491 11.9175C23.8104 11.3123 25.3766 11.0008 26.9582 11.0009C27.144 11.0009 27.3222 11.0747 27.4535 11.206C27.5849 11.3374 27.6587 11.5156 27.6587 11.7013V14.8106C28.1483 14.5183 28.7062 14.3603 29.2763 14.3523C30.0711 14.3621 30.8299 14.6847 31.3885 15.2502C31.947 15.8157 32.2602 16.5785 32.2602 17.3733C32.2602 18.1681 31.947 18.9309 31.3885 19.4964C30.8299 20.0619 30.0711 20.3845 29.2763 20.3944C28.7062 20.3862 28.1482 20.228 27.6587 19.9356V22.3508H30.8865V22.3536C31.0714 22.3536 31.2488 22.4271 31.3797 22.5578C31.5105 22.6886 31.584 22.8659 31.5842 23.0508C31.5842 24.4397 31.0069 24.5513 31.0069 25.3657C31.0069 25.7954 31.1776 26.2075 31.4814 26.5114C31.7853 26.8153 32.1975 26.986 32.6272 26.986C33.057 26.986 33.4691 26.8153 33.773 26.5114C34.0769 26.2075 34.2476 25.7954 34.2476 25.3657C34.2476 24.5624 33.6675 24.4073 33.6675 23.0508C33.6675 22.9589 33.6856 22.8678 33.7208 22.7829C33.756 22.6979 33.8076 22.6207 33.8727 22.5557C33.9377 22.4907 34.015 22.4392 34.0999 22.404C34.1849 22.3688 34.276 22.3508 34.368 22.3508H38.3031V22.3536C38.4881 22.3536 38.6655 22.4271 38.7963 22.5578C38.9271 22.6886 39.0007 22.8659 39.0008 23.0508C39.0008 30.1601 33.3319 31.9337 33.3319 37.254V40.1193C33.3296 40.9481 33.0397 41.7505 32.5115 42.3892C31.9833 43.0279 31.2497 43.4634 30.436 43.6212C30.0726 44.8878 28.6536 45.8337 26.9582 45.8337C25.4527 45.8337 23.8837 45.0327 23.4828 43.6281C22.9407 43.5314 22.4281 43.3117 21.9842 42.986L21.0967 43.8735C21.0317 43.9385 20.9545 43.9901 20.8695 44.0253C20.7846 44.0605 20.6935 44.0787 20.6015 44.0787C20.5096 44.0787 20.4185 44.0605 20.3335 44.0253C20.2486 43.9901 20.1714 43.9385 20.1064 43.8735L19.3925 43.1596C18.6644 43.5861 17.8812 43.9106 17.0647 44.1239V45.1337C17.0647 45.2256 17.0466 45.3166 17.0114 45.4015C16.9763 45.4865 16.9247 45.5636 16.8597 45.6286C16.7947 45.6936 16.7175 45.7452 16.6326 45.7804C16.5477 45.8155 16.4567 45.8337 16.3647 45.8337H13.1402C13.0483 45.8337 12.9572 45.8155 12.8723 45.7804C12.7874 45.7452 12.7102 45.6936 12.6452 45.6286C12.5802 45.5636 12.5287 45.4865 12.4935 45.4015C12.4583 45.3166 12.4402 45.2256 12.4402 45.1337V44.1235C11.6237 43.9102 10.8405 43.5858 10.1124 43.1591L9.39945 43.873C9.33444 43.9381 9.25725 43.9897 9.1723 44.0249C9.08734 44.0601 8.99628 44.0782 8.90431 44.0782C8.81235 44.0782 8.72128 44.0601 8.63632 44.0249C8.55137 43.9897 8.47418 43.9381 8.40917 43.873L6.12862 41.5934C6.06357 41.5284 6.01196 41.4512 5.97676 41.3662C5.94155 41.2813 5.92343 41.1902 5.92343 41.0983C5.92343 41.0063 5.94155 40.9152 5.97676 40.8303C6.01196 40.7453 6.06357 40.6681 6.12862 40.6031L6.84251 39.8892C6.41587 39.1612 6.09138 38.3779 5.87815 37.5615H4.86843C4.77647 37.5615 4.68539 37.5435 4.60041 37.5083C4.51543 37.4732 4.43821 37.4216 4.37316 37.3566C4.30811 37.2916 4.2565 37.2144 4.2213 37.1294C4.18609 37.0445 4.16797 36.9534 4.16797 36.8615V33.6369C4.16797 33.4513 4.24172 33.2732 4.37299 33.142C4.50427 33.0107 4.68232 32.9369 4.86797 32.9369H5.87815C6.09166 32.1206 6.41614 31.3373 6.84251 30.6092L6.12862 29.8953C6.06357 29.8303 6.01196 29.7531 5.97676 29.6681C5.94155 29.5832 5.92343 29.4921 5.92343 29.4001C5.92343 29.3082 5.94155 29.2171 5.97676 29.1321C6.01196 29.0472 6.06357 28.97 6.12862 28.905L8.40825 26.6254C8.47325 26.5603 8.55044 26.5087 8.6354 26.4735C8.72036 26.4383 8.81142 26.4202 8.90338 26.4202C8.99535 26.4202 9.08641 26.4383 9.17137 26.4735C9.25633 26.5087 9.33352 26.5603 9.39852 26.6254L10.1124 27.3393C10.8406 26.9128 11.6238 26.5883 12.4402 26.3749V25.3657C12.4401 25.2737 12.4582 25.1826 12.4933 25.0976C12.5285 25.0127 12.58 24.9354 12.6451 24.8704C12.7101 24.8053 12.7872 24.7537 12.8722 24.7185C12.9572 24.6833 13.0482 24.6652 13.1402 24.6652ZM15.6643 26.0652H13.8407V26.9323C13.8407 27.0949 13.7841 27.2525 13.6805 27.3778C13.5769 27.5031 13.4328 27.5884 13.2731 27.6189C12.2567 27.8151 11.2902 28.2135 10.4309 28.7906C10.296 28.8908 10.1296 28.9392 9.96197 28.9269C9.79437 28.9145 9.63678 28.8424 9.51797 28.7235L8.90501 28.1101L7.6138 29.3985L8.22723 30.0115C8.34193 30.1264 8.41315 30.2776 8.42868 30.4393C8.44422 30.6009 8.40312 30.7629 8.31241 30.8976C7.73158 31.7524 7.32969 32.7158 7.13093 33.73C7.10848 33.8982 7.02568 34.0525 6.89794 34.1643C6.77019 34.276 6.6062 34.3375 6.43649 34.3374H5.56889V36.161H6.43649C6.5991 36.1609 6.75665 36.2176 6.88197 36.3212C7.0073 36.4248 7.09256 36.5689 7.12306 36.7286C7.31923 37.7449 7.71771 38.7114 8.29482 39.5707C8.39492 39.7057 8.4432 39.8721 8.43088 40.0397C8.41856 40.2072 8.34645 40.3648 8.22769 40.4837L7.61426 41.0966L8.90408 42.3864L9.51704 41.773C9.63198 41.6583 9.78319 41.5871 9.94483 41.5716C10.1065 41.556 10.2685 41.5971 10.4032 41.6878C11.257 42.2688 12.2195 42.6711 13.2328 42.8707C13.4011 42.893 13.5555 42.9758 13.6674 43.1036C13.7792 43.2313 13.8408 43.3954 13.8407 43.5651V44.4323H15.6643V43.5651C15.6644 43.4025 15.7212 43.245 15.8248 43.1197C15.9285 42.9944 16.0726 42.9091 16.2323 42.8786C17.2489 42.6827 18.2158 42.2843 19.0754 41.7073C19.2103 41.6072 19.3768 41.5589 19.5443 41.5712C19.7119 41.5835 19.8695 41.6556 19.9883 41.7744L20.6032 42.3878L21.893 41.098L21.2795 40.4851C21.1648 40.3702 21.0935 40.2189 21.0779 40.0573C21.0624 39.8956 21.1036 39.7336 21.1944 39.5989C21.7753 38.7452 22.1772 37.7827 22.3758 36.7693C22.3983 36.6011 22.4811 36.4467 22.6088 36.3349C22.7365 36.223 22.9005 36.1614 23.0703 36.1615H23.9365V34.3374H23.0689C22.9063 34.3373 22.7488 34.2805 22.6235 34.1768C22.4982 34.0732 22.4129 33.9291 22.3823 33.7693C22.1862 32.7527 21.7877 31.7859 21.2106 30.9263C21.1104 30.7914 21.062 30.6249 21.0744 30.4573C21.0867 30.2897 21.1588 30.1321 21.2777 30.0133L21.8911 29.3985L20.6032 28.1106L19.9902 28.724C19.8753 28.8388 19.7241 28.91 19.5624 28.9256C19.4008 28.9411 19.2387 28.9 19.1041 28.8092C18.2502 28.2284 17.2877 27.8266 16.2744 27.6277C16.1062 27.6052 15.9518 27.5225 15.84 27.3947C15.7282 27.267 15.6665 27.103 15.6666 26.9332V26.0652H15.6643ZM14.7522 30.9309C13.8981 30.9309 13.0632 31.1842 12.353 31.6587C11.6428 32.1332 11.0893 32.8077 10.7624 33.5968C10.4356 34.3859 10.3501 35.2542 10.5167 36.0919C10.6833 36.9296 11.0946 37.6991 11.6986 38.3031C12.3025 38.907 13.072 39.3183 13.9097 39.485C14.7474 39.6516 15.6157 39.5661 16.4049 39.2392C17.194 38.9123 17.8684 38.3588 18.3429 37.6487C18.8175 36.9385 19.0707 36.1035 19.0707 35.2494C19.0708 34.6823 18.9591 34.1207 18.7421 33.5967C18.5251 33.0728 18.207 32.5967 17.806 32.1956C17.405 31.7946 16.9289 31.4765 16.4049 31.2595C15.8809 31.0425 15.3194 30.9309 14.7522 30.9309ZM10.7087 31.2055C9.909 32.0052 9.36441 33.0242 9.14379 34.1334C8.92317 35.2427 9.03644 36.3925 9.46928 37.4374C9.90211 38.4823 10.6351 39.3754 11.5755 40.0037C12.5159 40.632 13.6215 40.9674 14.7525 40.9674C15.8835 40.9674 16.9891 40.632 17.9295 40.0037C18.8698 39.3754 19.6028 38.4823 20.0356 37.4374C20.4685 36.3925 20.5817 35.2427 20.3611 34.1334C20.1405 33.0242 19.5959 32.0052 18.7962 31.2055C18.2652 30.6744 17.6348 30.2531 16.9409 29.9657C16.2471 29.6783 15.5035 29.5304 14.7525 29.5304C14.0015 29.5304 13.2578 29.6783 12.564 29.9657C11.8702 30.2531 11.2397 30.6744 10.7087 31.2055ZM22.0606 7.46756C22.0348 7.37818 22.0271 7.28456 22.0379 7.19217C22.0488 7.09979 22.0779 7.01049 22.1237 6.92951C22.1695 6.84853 22.231 6.77749 22.3045 6.72055C22.3781 6.66362 22.4622 6.62192 22.5521 6.59791C22.642 6.57389 22.7357 6.56804 22.8279 6.5807C22.92 6.59336 23.0088 6.62427 23.0888 6.67162C23.1689 6.71898 23.2387 6.78182 23.2942 6.85649C23.3497 6.93115 23.3897 7.01613 23.4119 7.10645L23.8939 8.90598C23.9377 9.08381 23.91 9.27173 23.8168 9.42937C23.7235 9.58701 23.5722 9.7018 23.3952 9.74908C23.2183 9.79636 23.0299 9.77237 22.8704 9.68225C22.711 9.59212 22.5932 9.44307 22.5425 9.26709L22.0606 7.46756ZM14.9277 12.0046L16.2453 13.3222C16.3097 13.39 16.387 13.4442 16.4727 13.4816C16.5583 13.519 16.6507 13.539 16.7441 13.5402C16.8376 13.5414 16.9304 13.5238 17.017 13.4886C17.1036 13.4534 17.1823 13.4012 17.2484 13.335C17.3146 13.2689 17.3668 13.1903 17.402 13.1036C17.4372 13.017 17.4547 12.9242 17.4535 12.8308C17.4523 12.7373 17.4324 12.645 17.395 12.5593C17.3576 12.4736 17.3033 12.3963 17.2356 12.3319L15.918 11.0138C15.8536 10.9461 15.7763 10.8918 15.6906 10.8544C15.6049 10.817 15.5126 10.7971 15.4191 10.7959C15.3256 10.7947 15.2328 10.8122 15.1462 10.8474C15.0596 10.8826 14.9809 10.9349 14.9148 11.001C14.8487 11.0671 14.7965 11.1458 14.7613 11.2324C14.726 11.319 14.7085 11.4118 14.7097 11.5053C14.7109 11.5987 14.7308 11.6911 14.7683 11.7767C14.8057 11.8624 14.8599 11.9402 14.9277 12.0046ZM11.0198 19.4981L12.8198 19.9805C12.9977 20.0243 13.1856 19.9966 13.3432 19.9034C13.5009 19.8101 13.6156 19.6588 13.6629 19.4818C13.7102 19.3049 13.6862 19.1165 13.5961 18.957C13.506 18.7976 13.3569 18.6798 13.1809 18.6291L11.3809 18.1485C11.2031 18.1047 11.0152 18.1324 10.8575 18.2257C10.6999 18.3189 10.5851 18.4703 10.5378 18.6472C10.4905 18.8241 10.5145 19.0126 10.6047 19.172C10.6948 19.3314 10.8438 19.4492 11.0198 19.4999V19.4981ZM25.0717 43.6841C25.9221 44.6952 28.0425 44.6661 28.8541 43.6841H25.0717ZM33.0902 8.80181V4.86664C33.0902 4.77371 33.1087 4.68172 33.1446 4.59602C33.1805 4.51032 33.2332 4.43264 33.2995 4.36752C33.3658 4.3024 33.4444 4.25113 33.5307 4.21672C33.617 4.18231 33.7093 4.16544 33.8022 4.1671V4.16988C35.3835 4.17012 36.9493 4.48201 38.41 5.0877C39.8707 5.6934 41.1977 6.58103 42.3151 7.69986C43.4326 8.81869 44.3186 10.1468 44.9225 11.6082C45.5264 13.0697 45.8363 14.6358 45.8346 16.2171C45.8346 16.4028 45.7609 16.5809 45.6296 16.7122C45.4984 16.8436 45.3203 16.9174 45.1346 16.9175H42.0244C42.3169 17.4068 42.4752 17.9646 42.4832 18.5347C42.4882 18.9345 42.4137 19.3314 42.2641 19.7023C42.1145 20.0732 41.8928 20.4106 41.6117 20.6952C41.3307 20.9797 40.996 21.2056 40.627 21.3598C40.258 21.5139 39.8621 21.5933 39.4622 21.5933C39.0623 21.5933 38.6663 21.5139 38.2973 21.3598C37.9283 21.2056 37.5936 20.9797 37.3126 20.6952C37.0316 20.4106 36.8098 20.0732 36.6602 19.7023C36.5106 19.3314 36.4362 18.9345 36.4411 18.5347C36.4491 17.9646 36.6074 17.4068 36.8999 16.9175H33.7906C33.6049 16.9174 33.4268 16.8436 33.2955 16.7122C33.1641 16.5809 33.0903 16.4028 33.0902 16.2171V12.2819H33.093C33.0931 12.0969 33.1666 11.9196 33.2975 11.7889C33.4283 11.6581 33.6057 11.5847 33.7906 11.5847C35.1795 11.5847 35.2906 12.162 36.1055 12.162C36.5352 12.162 36.9474 11.9913 37.2512 11.6874C37.5551 11.3835 37.7258 10.9714 37.7258 10.5416C37.7258 10.1119 37.5551 9.69973 37.2512 9.39585C36.9474 9.09197 36.5352 8.92126 36.1055 8.92126C35.3027 8.92126 35.1476 9.50181 33.7906 9.50181C33.605 9.50181 33.4269 9.42808 33.2955 9.29681C33.1642 9.16555 33.0903 8.98751 33.0902 8.80181Z" fill="#0129AC"/>
</svg>
