<svg width="50" height="50" viewBox="0 0 50 50" fill="none" xmlns="http://www.w3.org/2000/svg">
<path d="M22.6452 15.2949L22.1213 17.6223C22.0723 17.8392 22.1575 18.0639 22.3369 18.1947C22.5168 18.3252 22.7571 18.3363 22.948 18.2231L25.0002 17.0059L27.052 18.2231C27.1396 18.2754 27.238 18.3009 27.3359 18.3009C27.4512 18.3009 27.566 18.2651 27.6631 18.1947C27.8429 18.0643 27.9277 17.8392 27.8787 17.6223L27.3549 15.2949L29.1466 13.7196C29.3132 13.5731 29.377 13.341 29.3083 13.1299C29.2396 12.9188 29.0519 12.7686 28.8305 12.748L26.4553 12.5271L25.5109 10.3362C25.4228 10.1321 25.222 10 24.9998 10C24.7776 10 24.5768 10.1321 24.4887 10.3362L23.5443 12.5271L21.1687 12.7485C20.9473 12.769 20.7596 12.9192 20.6909 13.1303C20.6222 13.3414 20.686 13.5735 20.8526 13.72L22.6452 15.2949ZM23.9768 13.6044C24.1793 13.5855 24.3558 13.4575 24.436 13.2707L25.0002 11.9621L25.5644 13.2707C25.645 13.4575 25.8212 13.5855 26.0236 13.6044L27.4425 13.7365L26.3722 14.6772C26.2195 14.8117 26.152 15.0187 26.1969 15.2171L26.5096 16.6072L25.2842 15.88C25.1965 15.8282 25.0986 15.8022 25.0002 15.8022C24.9019 15.8022 24.8039 15.8282 24.7163 15.88L23.4908 16.6072L23.8036 15.2171C23.8484 15.0183 23.7809 14.8113 23.6283 14.6772L22.5579 13.7365L23.9768 13.6044ZM28.189 29.6185C29.0301 28.8008 29.5531 27.6638 29.5531 26.4079C29.5531 23.9244 27.5108 21.9039 25.0002 21.9039C22.4896 21.9039 20.4473 23.9244 20.4473 26.4079C20.4473 27.6638 20.9703 28.8008 21.8115 29.6185C20.8428 29.9888 19.9704 30.6007 19.2873 31.404C18.3334 32.5253 17.8079 33.9492 17.8079 35.4141V39.333C17.8079 39.8284 18.2112 40.2317 18.7066 40.2317H31.2946C31.7901 40.2317 32.1934 39.8284 32.1934 39.333V35.4141C32.1934 33.9492 31.6679 32.5249 30.714 31.404C30.0301 30.6007 29.1577 29.9888 28.189 29.6185ZM21.56 26.4079C21.56 24.538 23.1032 23.0167 25.0002 23.0167C26.8973 23.0167 28.4404 24.538 28.4404 26.4079C28.4404 28.2778 26.8973 29.7987 25.0002 29.7987C23.1032 29.7987 21.56 28.2774 21.56 26.4079ZM31.0798 39.119H18.9206V35.4141C18.9206 32.9941 20.6107 30.9283 22.9641 30.4341C23.5772 30.7386 24.2686 30.9114 25.0002 30.9114C25.7319 30.9114 26.4232 30.7386 27.0364 30.4341C29.3898 30.9283 31.0798 32.9941 31.0798 35.4141V39.119ZM16.9462 23.9759L16.4223 21.6484L18.214 20.0732C18.3807 19.9267 18.4444 19.6946 18.3757 19.4835C18.307 19.2724 18.1194 19.1222 17.898 19.1016L15.5228 18.8806L14.5783 16.6897C14.4903 16.4856 14.2895 16.3535 14.0673 16.3535C13.845 16.3535 13.6442 16.4856 13.5562 16.6897L12.6118 18.8802L10.2361 19.1016C10.0147 19.1222 9.82709 19.2724 9.75837 19.4839C9.68964 19.695 9.75343 19.9271 9.92009 20.0736L11.7118 21.6488L11.1879 23.9763C11.139 24.1932 11.2242 24.4178 11.4036 24.5487C11.5834 24.6791 11.8237 24.6903 12.0147 24.5771L14.0664 23.3599L16.1182 24.5771C16.2059 24.6294 16.3042 24.6549 16.4021 24.6549C16.5174 24.6549 16.6322 24.6191 16.7293 24.5487C16.9099 24.4174 16.9947 24.1927 16.9462 23.9759ZM15.4396 21.0307C15.287 21.1653 15.2195 21.3723 15.2643 21.5706L15.5771 22.9607L14.3516 22.2336C14.264 22.1817 14.166 22.1558 14.0677 22.1558C13.9693 22.1558 13.8714 22.1817 13.7837 22.2336L12.5583 22.9607L12.871 21.5706C12.9159 21.3719 12.8484 21.1649 12.6957 21.0307L11.6254 20.09L13.0442 19.9579C13.2467 19.939 13.4232 19.811 13.5035 19.6242L14.0677 18.3156L14.6318 19.6242C14.7125 19.811 14.8886 19.939 15.0911 19.9579L16.51 20.09L15.4396 21.0307ZM13.1669 28.9526L10.7917 28.7317L9.84725 26.5408C9.75919 26.3367 9.55837 26.2046 9.33616 26.2046C9.11395 26.2046 8.91313 26.3367 8.82507 26.5408L7.88066 28.7313L5.50503 28.9526C5.28364 28.9732 5.09599 29.1234 5.02727 29.3349C4.95855 29.546 5.02233 29.7781 5.18899 29.9246L6.98069 31.4999L6.45685 33.8274C6.40788 34.0442 6.49306 34.2689 6.67248 34.3998C6.8523 34.5302 7.09262 34.5413 7.28356 34.4282L9.33534 33.2109L11.3871 34.4282C11.4748 34.4804 11.5731 34.5059 11.671 34.5059C11.7863 34.5059 11.9011 34.4701 11.9982 34.3998C12.178 34.2693 12.2628 34.0442 12.2138 33.8274L11.69 31.4999L13.4817 29.9246C13.6483 29.7781 13.7121 29.546 13.6434 29.3349C13.5759 29.1234 13.3879 28.9732 13.1669 28.9526ZM10.7081 30.8822C10.5555 31.0168 10.488 31.2237 10.5328 31.4221L10.8456 32.8122L9.6201 32.085C9.53245 32.0332 9.43451 32.0073 9.33616 32.0073C9.23781 32.0073 9.13987 32.0332 9.05222 32.085L7.82675 32.8122L8.1395 31.4221C8.18435 31.2233 8.11686 31.0163 7.9642 30.8822L6.89387 29.9415L8.31274 29.8094C8.5152 29.7905 8.69174 29.6625 8.77198 29.4757L9.33616 28.1671L9.90033 29.4757C9.98099 29.6625 10.1571 29.7905 10.3596 29.8094L11.7785 29.9415L10.7081 30.8822ZM38.2681 24.6545C38.3833 24.6545 38.4981 24.6187 38.5952 24.5483C38.775 24.4178 38.8598 24.1927 38.8108 23.9759L38.287 21.6484L40.0787 20.0732C40.2454 19.9267 40.3091 19.6946 40.2404 19.4835C40.1717 19.2724 39.9841 19.1222 39.7627 19.1016L37.3874 18.8806L36.443 16.6897C36.355 16.4856 36.1542 16.3535 35.9319 16.3535C35.7097 16.3535 35.5089 16.4856 35.4209 16.6897L34.4764 18.8802L32.1008 19.1016C31.8794 19.1222 31.6918 19.2724 31.6231 19.4835C31.5543 19.6946 31.6181 19.9267 31.7848 20.0732L33.5765 21.6484L33.0526 23.9759C33.0037 24.1927 33.0888 24.4174 33.2683 24.5483C33.4481 24.6787 33.688 24.6898 33.8793 24.5767L35.9311 23.3594L37.9829 24.5767C38.0722 24.6285 38.1701 24.6545 38.2681 24.6545ZM36.2163 22.2336C36.1286 22.1817 36.0307 22.1558 35.9324 22.1558C35.834 22.1558 35.7361 22.1817 35.6484 22.2336L34.423 22.9607L34.7357 21.5706C34.7806 21.3719 34.7131 21.1649 34.5604 21.0307L33.4901 20.09L34.9089 19.9579C35.1114 19.939 35.2879 19.811 35.3682 19.6242L35.9324 18.3156L36.4965 19.6242C36.5772 19.811 36.7533 19.939 36.9558 19.9579L38.3747 20.09L37.3043 21.0307C37.1517 21.1653 37.0842 21.3723 37.129 21.5706L37.4418 22.9607L36.2163 22.2336ZM44.9728 29.3349C44.904 29.1238 44.7164 28.9736 44.495 28.9531L42.1198 28.7321L41.1754 26.5412C41.0873 26.3371 40.8865 26.205 40.6643 26.205C40.4421 26.205 40.2412 26.3371 40.1532 26.5412L39.2088 28.7317L36.8331 28.9531C36.6118 28.9736 36.4241 29.1238 36.3554 29.3353C36.2867 29.5464 36.3504 29.7785 36.5171 29.925L38.3088 31.5003L37.785 33.8278C37.736 34.0446 37.8212 34.2693 38.0006 34.4002C38.1804 34.5306 38.4203 34.5417 38.6117 34.4286L40.6635 33.2113L42.7152 34.4286C42.8029 34.4808 42.9012 34.5063 42.9992 34.5063C43.1144 34.5063 43.2292 34.4705 43.3263 34.4002C43.5061 34.2697 43.5909 34.0446 43.5419 33.8278L43.0181 31.5003L44.8098 29.925C44.9777 29.7777 45.0415 29.546 44.9728 29.3349ZM42.0362 30.8818C41.8836 31.0164 41.8161 31.2233 41.8609 31.4217L42.1737 32.8118L40.9482 32.0846C40.8606 32.0328 40.7626 32.0068 40.6643 32.0068C40.5659 32.0068 40.468 32.0328 40.3803 32.0846L39.1549 32.8118L39.4676 31.4217C39.5125 31.2229 39.445 31.0159 39.2923 30.8818L38.222 29.9411L39.6409 29.809C39.8433 29.7901 40.0199 29.6621 40.1001 29.4753L40.6643 28.1667L41.2285 29.4753C41.3091 29.6621 41.4852 29.7901 41.6877 29.809L43.1066 29.9411L42.0362 30.8818Z" fill="#0129AC"/>
</svg>
