<svg width="50" height="50" viewBox="0 0 50 50" fill="none" xmlns="http://www.w3.org/2000/svg">
<path fill-rule="evenodd" clip-rule="evenodd" d="M11.6852 26.9213C11.6025 27.0731 11.5775 27.2498 11.615 27.4186C11.6525 27.5875 11.7499 27.737 11.8892 27.8395L17.3053 31.7533C17.4353 31.8471 17.5228 31.9887 17.5484 32.1469C17.574 32.3052 17.5358 32.4671 17.442 32.5971C17.3482 32.7272 17.2066 32.8146 17.0484 32.8402C16.8902 32.8659 16.7282 32.8276 16.5982 32.7338L11.1839 28.8195C10.8454 28.5741 10.5961 28.2251 10.4738 27.8253C10.3515 27.4255 10.3628 26.9967 10.5061 26.6039L9.61275 21.4256C9.57717 21.2438 9.47176 21.0832 9.31914 20.9782C9.16651 20.8733 8.97882 20.8323 8.79634 20.8641C8.61385 20.8959 8.45109 20.998 8.34299 21.1484C8.23488 21.2988 8.19003 21.4856 8.21806 21.6687L9.69675 30.2449C10.071 32.4285 11.0301 34.0903 12.0728 35.8894C12.5888 36.7783 13.1501 37.7459 13.7288 38.8975L21.0592 37.6334C21.5442 36.5031 21.6894 35.256 21.4769 34.0445C21.4215 33.669 21.2889 33.3091 21.0874 32.9873C20.886 32.6656 20.6202 32.3891 20.3067 32.1751L12.7217 26.6893C12.6403 26.6307 12.5475 26.5899 12.4493 26.5697C12.3511 26.5495 12.2497 26.5503 12.1519 26.5721C12.054 26.5938 11.9618 26.636 11.8814 26.6959C11.801 26.7557 11.7341 26.832 11.6852 26.9195V26.9213ZM23.5223 23.4172L20.8863 27.9831C20.8297 28.0809 20.7469 28.1609 20.6471 28.214C20.5474 28.2671 20.4347 28.2911 20.322 28.2834C20.2093 28.2756 20.101 28.2365 20.0094 28.1702C19.9179 28.104 19.8467 28.0135 19.804 27.9088L19.0698 26.0995L17.1355 26.3661C17.023 26.3818 16.9084 26.3653 16.8047 26.3188C16.7011 26.2722 16.6127 26.1974 16.5496 26.1029C16.4866 26.0084 16.4514 25.898 16.4482 25.7844C16.445 25.6709 16.4739 25.5587 16.5315 25.4608L19.144 20.9354C18.7165 20.4776 17.6631 20.2798 17.1653 19.4305C16.6764 18.5962 16.9969 17.5922 16.824 16.9642C16.6533 16.342 15.8533 15.5988 15.8533 14.5895C15.8533 13.5801 16.6533 12.8357 16.824 12.2143C16.9969 11.5863 16.6769 10.5823 17.1653 9.74853C17.6538 8.91473 18.6787 8.70984 19.1209 8.26628C19.5631 7.82271 19.768 6.79959 20.6032 6.31069C21.4383 5.82179 22.4414 6.1418 23.0694 5.96935C23.6894 5.80001 24.4334 5 25.4428 5C26.4521 5 27.1966 5.80001 27.8179 5.97113C28.446 6.14357 29.45 5.82401 30.2838 6.31247C31.1176 6.80092 31.3229 7.8236 31.766 8.26806C32.2091 8.71251 33.2327 8.91518 33.7216 9.7503C34.2105 10.5854 33.89 11.5881 34.0629 12.2161C34.2336 12.8384 35.0341 13.5815 35.0341 14.5913C35.0341 15.6011 34.2341 16.3451 34.0629 16.966C33.89 17.594 34.2101 18.598 33.7216 19.4322C33.2243 20.2816 32.1709 20.4794 31.7429 20.9372L34.3558 25.4626C34.4135 25.5604 34.4425 25.6724 34.4394 25.7859C34.4364 25.8994 34.4015 26.0097 34.3387 26.1043C34.276 26.1989 34.1878 26.2739 34.0844 26.3207C33.981 26.3676 33.8665 26.3844 33.754 26.3693L31.8202 26.1026L31.086 27.9119C31.0434 28.0167 30.9722 28.1074 30.8806 28.1737C30.789 28.24 30.6806 28.2792 30.5678 28.2869C30.455 28.2947 30.3423 28.2706 30.2425 28.2174C30.1427 28.1642 30.0598 28.0841 30.0033 27.9862L27.3642 23.4172C26.7606 23.755 26.2059 24.1843 25.4432 24.1843C24.6806 24.1843 24.1259 23.755 23.5223 23.4172ZM19.8587 22.1163C20.0416 22.4248 20.2968 22.6841 20.6023 22.8719C21.123 23.1231 21.7042 23.222 22.2787 23.1572L20.4592 26.3088L20.0147 25.2088C19.9621 25.079 19.8661 24.9714 19.7431 24.9044C19.6201 24.8374 19.4776 24.815 19.34 24.8412L18.1933 25.0003L19.8587 22.1158V22.1163ZM28.6077 23.1576L30.4273 26.3093L30.8718 25.2092C30.9243 25.0794 31.0202 24.9719 31.1431 24.9049C31.2661 24.8378 31.4085 24.8155 31.546 24.8417L32.6936 25.0003L31.0282 22.1158C30.3971 23.1048 29.6869 23.1719 28.6077 23.1576ZM25.4428 8.31472C26.6845 8.31455 27.8983 8.68259 28.9308 9.37231C29.9634 10.062 30.7681 11.0424 31.2434 12.1895C31.7187 13.3367 31.8432 14.599 31.601 15.8168C31.3589 17.0347 30.7611 18.1534 29.8831 19.0314C29.0052 19.9095 27.8866 20.5075 26.6688 20.7498C25.4509 20.9921 24.1886 20.8678 23.0414 20.3927C21.8943 19.9176 20.9137 19.1129 20.2239 18.0805C19.534 17.0481 19.1658 15.8343 19.1658 14.5926C19.1658 12.9278 19.8271 11.3311 21.0042 10.1538C22.1814 8.97648 23.778 8.31496 25.4428 8.31472ZM29.0246 11.0103C28.3161 10.3015 27.4133 9.81878 26.4304 9.62313C25.4475 9.42747 24.4286 9.5277 23.5027 9.91113C22.5768 10.2946 21.7853 10.944 21.2285 11.7773C20.6717 12.6105 20.3745 13.5902 20.3745 14.5924C20.3745 15.5946 20.6717 16.5743 21.2285 17.4075C21.7853 18.2408 22.5768 18.8902 23.5027 19.2736C24.4286 19.6571 25.4475 19.7573 26.4304 19.5616C27.4133 19.366 28.3161 18.8832 29.0246 18.1744C29.9744 17.2243 30.508 15.9358 30.508 14.5924C30.508 13.2489 29.9744 11.9605 29.0246 11.0103ZM22.0623 15.5971L23.6468 17.1815C23.7604 17.2951 23.9145 17.3589 24.0752 17.3589C24.2359 17.3589 24.39 17.2951 24.5037 17.1815L28.8242 12.8606C28.9378 12.7469 29.0017 12.5928 29.0017 12.4321C29.0017 12.2714 28.9378 12.1173 28.8242 12.0037C28.7106 11.89 28.5564 11.8262 28.3957 11.8262C28.235 11.8262 28.0809 11.89 27.9673 12.0037L24.0752 15.8957L22.9196 14.7402C22.806 14.6265 22.6519 14.5627 22.4912 14.5627C22.3305 14.5627 22.1764 14.6265 22.0627 14.7402C21.9491 14.8538 21.8853 15.0079 21.8853 15.1686C21.8853 15.3293 21.9487 15.4834 22.0623 15.5971ZM26.4535 6.63469C27.096 7.10199 27.8885 7.31551 28.6788 7.23426C29.7011 7.22048 29.7758 7.26359 30.2567 8.15605C30.5641 8.88888 31.147 9.47173 31.8798 9.77919C32.7723 10.2601 32.8131 10.3352 32.8016 11.357C32.7203 12.1473 32.9339 12.9398 33.4012 13.5824C33.962 14.5211 33.962 14.6637 33.4012 15.6024C32.934 16.245 32.7205 17.0375 32.8016 17.8278C32.8154 18.85 32.7723 18.9247 31.8798 19.4056C31.1469 19.7132 30.5641 20.2962 30.2567 21.0292C29.7758 21.9216 29.7006 21.9625 28.6788 21.951C27.8885 21.8693 27.0958 22.0828 26.4535 22.5505C25.5148 23.1114 25.3717 23.1114 24.433 22.5505C23.7908 22.0829 22.9983 21.8694 22.2081 21.951C21.1858 21.9643 21.1107 21.9216 20.6303 21.0292C20.3226 20.2962 19.7397 19.7132 19.0067 19.4056C18.1142 18.9247 18.0733 18.8496 18.0849 17.8278C18.1667 17.0377 17.9539 16.2452 17.4871 15.6024C16.9262 14.6637 16.9262 14.5211 17.4871 13.5824C17.9542 12.9393 18.1671 12.1462 18.0849 11.3557C18.0711 10.3334 18.1142 10.2588 19.0067 9.77786C19.7395 9.47062 20.3224 8.88813 20.6303 8.15561C21.1107 7.26315 21.1863 7.22004 22.2081 7.23382C22.9983 7.31499 23.7906 7.10148 24.433 6.63425C25.3717 6.07335 25.5148 6.07335 26.4535 6.63425V6.63469ZM29.4913 39.5886C29.3205 39.5886 29.1535 39.6392 29.0115 39.7342C28.8695 39.8291 28.7588 39.964 28.6934 40.1218C28.6281 40.2796 28.611 40.4533 28.6444 40.6208C28.6777 40.7883 28.76 40.9422 28.8808 41.0629C29.0016 41.1837 29.1556 41.2659 29.3231 41.2992C29.4907 41.3325 29.6643 41.3153 29.8221 41.2499C29.9799 41.1844 30.1147 41.0737 30.2096 40.9316C30.3044 40.7895 30.355 40.6225 30.3549 40.4517C30.3549 40.3383 30.3325 40.2261 30.2891 40.1213C30.2457 40.0166 30.1821 39.9214 30.1019 39.8412C30.0217 39.7611 29.9265 39.6975 29.8217 39.6542C29.717 39.6108 29.6047 39.5885 29.4913 39.5886ZM27.8428 37.2877C27.6847 37.2607 27.5223 37.2977 27.3913 37.3905C27.2604 37.4832 27.1717 37.6242 27.1446 37.7823L26.3606 42.3215C26.3337 42.4798 26.3707 42.6422 26.4636 42.7732C26.5564 42.9041 26.6975 42.9928 26.8557 43.0198L38.2875 44.9913C38.3658 45.0047 38.446 45.0026 38.5235 44.9849C38.601 44.9673 38.6742 44.9346 38.7391 44.8887C38.8039 44.8427 38.8591 44.7845 38.9014 44.7172C38.9437 44.6499 38.9723 44.575 38.9857 44.4967L39.7675 39.9575C39.7809 39.8792 39.7787 39.799 39.7611 39.7215C39.7435 39.644 39.7108 39.5707 39.6648 39.5059C39.6189 39.441 39.5606 39.3859 39.4933 39.3436C39.4261 39.3012 39.3511 39.2726 39.2728 39.2592L38.407 39.1099C38.9186 38.1157 39.4075 37.273 39.8599 36.4925C40.9982 34.5312 41.9164 32.948 42.3733 30.4924C42.3769 30.4778 42.3804 30.4627 42.3831 30.448L43.8618 21.8741C43.9064 21.6237 43.9008 21.367 43.8453 21.1189C43.7898 20.8708 43.6856 20.6361 43.5386 20.4286C43.3917 20.2211 43.2049 20.0449 42.9893 19.9102C42.7736 19.7755 42.5333 19.685 42.2824 19.644C42.0315 19.603 41.7749 19.6122 41.5276 19.6712C41.2802 19.7302 41.0471 19.8378 40.8417 19.9877C40.6363 20.1376 40.4628 20.3268 40.3312 20.5444C40.1996 20.7619 40.1125 21.0035 40.075 21.2549L39.3417 25.5083C39.0371 25.3765 38.7036 25.326 38.3736 25.3618C38.0437 25.3975 37.7287 25.5183 37.4594 25.7124L29.8744 31.192C29.4292 31.4994 29.0519 31.895 28.7659 32.3543C28.4799 32.8135 28.2912 33.3267 28.2117 33.8618C28.0157 35.041 28.0966 36.2496 28.4482 37.3921L27.8428 37.2877ZM29.8286 37.6303L37.159 38.8944C37.7368 37.7428 38.299 36.7752 38.8146 35.8863C39.8582 34.088 40.8146 32.4262 41.1906 30.2418L42.6684 21.6669C42.6965 21.4838 42.6516 21.297 42.5435 21.1466C42.4354 20.9962 42.2726 20.8941 42.0901 20.8623C41.9077 20.8305 41.72 20.8715 41.5673 20.9765C41.4147 21.0814 41.3093 21.242 41.2737 21.4238L40.3804 26.6021C40.5236 26.9949 40.535 27.4236 40.4128 27.8234C40.2906 28.2232 40.0414 28.5722 39.703 28.8177L34.2874 32.7338C34.1574 32.8181 34 32.8492 33.8478 32.8207C33.6955 32.7921 33.5601 32.7062 33.4695 32.5805C33.3788 32.4549 33.34 32.2992 33.3609 32.1458C33.3819 31.9923 33.4611 31.8527 33.582 31.756L38.9986 27.8395C39.1413 27.7253 39.2347 27.5606 39.2592 27.3795C39.2837 27.1983 39.2375 27.0147 39.1302 26.8667C39.023 26.7188 38.8628 26.6178 38.683 26.5847C38.5033 26.5517 38.3177 26.5891 38.1648 26.6893L30.5798 32.172C30.2663 32.3861 30.0006 32.6626 29.7992 32.9843C29.5978 33.3061 29.4651 33.6659 29.4095 34.0414C29.1973 35.2529 29.3426 36.5001 29.8278 37.6303H29.8286ZM38.4728 40.3495L37.895 43.6958L27.6566 41.93L28.2344 38.5837L38.4728 40.3495ZM21.3952 39.5886C21.566 39.5886 21.733 39.6392 21.875 39.7342C22.017 39.8291 22.1277 39.964 22.193 40.1218C22.2584 40.2796 22.2755 40.4533 22.2421 40.6208C22.2088 40.7883 22.1265 40.9422 22.0057 41.0629C21.8848 41.1837 21.7309 41.2659 21.5634 41.2992C21.3958 41.3325 21.2222 41.3153 21.0644 41.2499C20.9066 41.1844 20.7718 41.0737 20.6769 40.9316C20.5821 40.7895 20.5315 40.6225 20.5316 40.4517C20.5316 40.3383 20.5539 40.2261 20.5973 40.1213C20.6408 40.0166 20.7044 39.9214 20.7846 39.8412C20.8648 39.7611 20.96 39.6975 21.0647 39.6542C21.1695 39.6108 21.2818 39.5885 21.3952 39.5886ZM13.5137 40.1597L22.653 38.5837L23.2308 41.93L12.9919 43.6958L12.4141 40.3495L13.4613 40.1686C13.4786 40.1665 13.4958 40.1636 13.5128 40.1597H13.5137ZM12.4795 39.1099C11.9683 38.1157 11.4794 37.273 11.0266 36.4925C9.88875 34.5312 8.97007 32.948 8.51318 30.4924C8.50962 30.4779 8.50651 30.4631 8.50384 30.448L7.02515 21.8723C6.94305 21.3702 7.06377 20.8561 7.36075 20.443C7.65773 20.0299 8.10664 19.7517 8.60873 19.6696C9.11083 19.5875 9.62497 19.7082 10.0381 20.0052C10.4511 20.3022 10.7293 20.7511 10.8114 21.2532L11.5452 25.5066C11.8498 25.3747 12.1834 25.3242 12.5133 25.36C12.8432 25.3957 13.1582 25.5165 13.4275 25.7106L21.0125 31.192C21.4576 31.4995 21.8349 31.8951 22.1209 32.3544C22.4069 32.8136 22.5956 33.3267 22.6752 33.8618C22.8709 35.041 22.7898 36.2496 22.4383 37.3921L23.0445 37.2877C23.2028 37.2607 23.3652 37.2977 23.4962 37.3904C23.6272 37.4832 23.716 37.6241 23.7432 37.7823L24.5259 42.3215C24.5528 42.4797 24.5158 42.6421 24.4231 42.773C24.3303 42.904 24.1894 42.9927 24.0312 43.0198L12.6004 44.9913C12.4421 45.0184 12.2796 44.9815 12.1486 44.8887C12.0175 44.7959 11.9287 44.6549 11.9017 44.4967L11.119 39.9575C11.0921 39.7993 11.1291 39.6369 11.2218 39.506C11.3146 39.3751 11.4555 39.2863 11.6137 39.2592L12.4795 39.1099Z" fill="#0129AC"/>
</svg>
