<svg width="50" height="50" viewBox="0 0 50 50" fill="none" xmlns="http://www.w3.org/2000/svg">
<path d="M33.474 25.3386C33.474 25.1875 33.4235 25.0407 33.3306 24.9215C33.2376 24.8024 33.1074 24.7177 32.9608 24.681L31.2368 24.2539L32.15 22.7326C32.2278 22.6029 32.26 22.4508 32.2414 22.3007C32.2229 22.1506 32.1547 22.011 32.0476 21.9041L30.1324 19.9828C30.0255 19.8757 29.8859 19.8075 29.7358 19.789C29.5857 19.7704 29.4337 19.8026 29.3039 19.8804L27.7792 20.7963L27.3487 19.0743C27.3125 18.9279 27.2285 18.7977 27.11 18.7044C26.9915 18.6111 26.8453 18.56 26.6945 18.5591H23.9827C23.8315 18.5591 23.6847 18.6096 23.5656 18.7026C23.4464 18.7956 23.3618 18.9257 23.3251 19.0723L22.8979 20.7963L21.3732 19.8811C21.2435 19.8033 21.0915 19.7711 20.9414 19.7897C20.7912 19.8082 20.6516 19.8764 20.5448 19.9835L18.6268 21.9007C18.5198 22.0076 18.4516 22.1472 18.433 22.2973C18.4145 22.4474 18.4467 22.5995 18.5245 22.7292L19.4404 24.2539L17.7184 24.6844C17.5719 24.7206 17.4418 24.8046 17.3485 24.9231C17.2551 25.0416 17.204 25.1878 17.2031 25.3386V28.0505C17.2031 28.2016 17.2536 28.3484 17.3466 28.4675C17.4396 28.5867 17.5697 28.6713 17.7163 28.7081L19.4383 29.1386L18.5251 30.6599C18.4473 30.7896 18.4151 30.9416 18.4337 31.0918C18.4522 31.2419 18.5205 31.3815 18.6275 31.4884L20.5448 33.4063C20.6516 33.5133 20.7912 33.5816 20.9414 33.6001C21.0915 33.6187 21.2435 33.5865 21.3732 33.5087L22.8979 32.5928L23.3284 34.3148C23.3646 34.4612 23.4486 34.5913 23.5671 34.6847C23.6856 34.778 23.8318 34.8291 23.9827 34.83H26.6945C26.8456 34.83 26.9924 34.7795 27.1116 34.6865C27.2307 34.5935 27.3154 34.4634 27.3521 34.3168L27.7792 32.5928L29.3006 33.506C29.4303 33.5838 29.5823 33.6159 29.7324 33.5974C29.8825 33.5788 30.0221 33.5106 30.129 33.4036L32.0503 31.4884C32.1574 31.3815 32.2256 31.2419 32.2442 31.0918C32.2627 30.9416 32.2305 30.7896 32.1527 30.6599L31.2368 29.1352L32.9588 28.7047C33.1052 28.6685 33.2354 28.5845 33.3287 28.466C33.422 28.3475 33.4732 28.2013 33.474 28.0505V25.3386ZM32.1181 27.521L30.228 27.9955C30.1227 28.0219 30.0252 28.0731 29.9438 28.145C29.8624 28.2168 29.7994 28.3072 29.7602 28.4084C29.7514 28.4301 29.7412 28.4511 29.7297 28.4715C29.708 28.5135 29.687 28.5562 29.6673 28.6003C29.6237 28.6995 29.6045 28.8077 29.6114 28.9159C29.6182 29.0241 29.6509 29.129 29.7066 29.222L30.7168 30.906L29.548 32.0748L27.8687 31.0674C27.7755 31.0114 27.6701 30.9786 27.5616 30.9719C27.453 30.9652 27.3444 30.9846 27.245 31.0287L27.0511 31.1026C26.9511 31.1425 26.8621 31.2056 26.7914 31.2867C26.7207 31.3678 26.6702 31.4646 26.6443 31.569L26.165 33.4741H24.5122L24.0376 31.584C24.0113 31.4786 23.96 31.3811 23.8882 31.2997C23.8163 31.2183 23.726 31.1554 23.6247 31.1162C23.6031 31.1074 23.582 31.0972 23.5617 31.0857C23.5196 31.064 23.4769 31.0429 23.4329 31.0233C23.3336 30.9797 23.2254 30.9605 23.1172 30.9673C23.0091 30.9742 22.9041 31.0068 22.8112 31.0626L21.1271 32.0728L19.9583 30.904L20.9658 29.2247C21.0218 29.1314 21.0545 29.0261 21.0612 28.9175C21.068 28.809 21.0485 28.7004 21.0044 28.601L20.9305 28.4071C20.8906 28.3071 20.8275 28.2181 20.7464 28.1473C20.6653 28.0766 20.5685 28.0262 20.4641 28.0003L18.559 27.521V25.8681L20.4614 25.3935C20.5667 25.3672 20.6642 25.316 20.7456 25.2441C20.827 25.1723 20.89 25.0819 20.9292 24.9807L21.0132 24.7963C21.0569 24.697 21.076 24.5888 21.0692 24.4806C21.0624 24.3725 21.0297 24.2675 20.9739 24.1746L19.957 22.4858L21.1258 21.317L22.8044 22.3238C22.8974 22.38 23.0027 22.4128 23.1112 22.4196C23.2197 22.4263 23.3282 22.4067 23.4274 22.3624L23.5237 22.3183C23.5562 22.3027 23.5915 22.2872 23.6227 22.2736C23.7241 22.2345 23.8145 22.1716 23.8865 22.0901C23.9585 22.0087 24.0098 21.9112 24.0362 21.8058L24.5108 19.9157H26.1637L26.6382 21.8058C26.6646 21.9111 26.7158 22.0086 26.7876 22.09C26.8595 22.1714 26.9499 22.2344 27.0511 22.2736C27.0728 22.2824 27.0938 22.2926 27.1141 22.3041C27.1562 22.3258 27.1989 22.3468 27.243 22.3665C27.3422 22.4101 27.4504 22.4293 27.5586 22.4224C27.6668 22.4156 27.7717 22.3829 27.8646 22.3272L29.5487 21.317L30.7175 22.4858L29.71 24.1651C29.654 24.2583 29.6213 24.3637 29.6146 24.4722C29.6078 24.5808 29.6273 24.6894 29.6714 24.7888L29.7453 24.9827C29.7852 25.0827 29.8483 25.1717 29.9294 25.2424C30.0105 25.3132 30.1073 25.3636 30.2117 25.3895L32.1188 25.864L32.1181 27.521Z" fill="#0129AC"/>
<path d="M5.67795 34.83H9.06773V38.2198C9.06773 38.3996 9.13916 38.572 9.2663 38.6992C9.39344 38.8263 9.56588 38.8977 9.74568 38.8977H31.4748C31.603 40.1745 32.0909 41.3886 32.8817 42.399C33.6726 43.4095 34.734 44.1747 35.9425 44.6059C37.1511 45.037 38.4572 45.1163 39.709 44.8346C40.9608 44.5528 42.107 43.9216 43.0143 43.0143C43.9216 42.107 44.5528 40.9608 44.8346 39.709C45.1163 38.4572 45.037 37.1511 44.6059 35.9425C44.1747 34.734 43.4095 33.6726 42.399 32.8817C41.3886 32.0909 40.1745 31.603 38.8977 31.4748V9.74568C38.8977 9.56588 38.8263 9.39344 38.6992 9.2663C38.572 9.13916 38.3996 9.06773 38.2198 9.06773H34.83V5.67795C34.83 5.49815 34.7586 5.32571 34.6314 5.19857C34.5043 5.07143 34.3319 5 34.1521 5H5.67795C5.49815 5 5.32571 5.07143 5.19857 5.19857C5.07143 5.32571 5 5.49815 5 5.67795V34.1521C5 34.3319 5.07143 34.5043 5.19857 34.6314C5.32571 34.7586 5.49815 34.83 5.67795 34.83ZM10.4236 37.5418V15.8473H37.5418V31.4748C35.9867 31.6332 34.5339 32.3232 33.4286 33.4286C32.3232 34.5339 31.6332 35.9867 31.4748 37.5418H10.4236ZM43.6434 38.2198C43.6434 39.2925 43.3253 40.3411 42.7294 41.233C42.1334 42.1249 41.2864 42.8201 40.2953 43.2306C39.3043 43.6411 38.2138 43.7485 37.1617 43.5392C36.1096 43.3299 35.1432 42.8134 34.3847 42.0549C33.6262 41.2964 33.1096 40.33 32.9004 39.2779C32.6911 38.2258 32.7985 37.1353 33.209 36.1443C33.6195 35.1532 34.3147 34.3062 35.2066 33.7102C36.0985 33.1142 37.1471 32.7962 38.2198 32.7962C39.6577 32.7978 41.0363 33.3697 42.0531 34.3865C43.0699 35.4033 43.6418 36.7818 43.6434 38.2198ZM37.5418 10.4236V14.4914H10.4236V10.4236H37.5418ZM6.35591 6.35591H33.4741V9.06773H9.74568C9.56588 9.06773 9.39344 9.13916 9.2663 9.2663C9.13916 9.39344 9.06773 9.56588 9.06773 9.74568V10.4236H6.35591V6.35591ZM6.35591 11.7795H9.06773V33.4741H6.35591V11.7795Z" fill="#0129AC"/>
<path d="M13.1372 11.7798H11.7812V13.1357H13.1372V11.7798Z" fill="#0129AC"/>
<path d="M15.8481 11.7798H14.4922V13.1357H15.8481V11.7798Z" fill="#0129AC"/>
<path d="M18.559 11.7798H17.2031V13.1357H18.559V11.7798Z" fill="#0129AC"/>
<path d="M36.184 11.7798H34.8281V13.1357H36.184V11.7798Z" fill="#0129AC"/>
<path d="M34.3508 38.699L36.3847 40.7329L37.3433 39.7743L36.4667 38.8977H39.9731L39.0965 39.7743L40.0552 40.7329L42.089 38.699C42.2161 38.5719 42.2875 38.3995 42.2875 38.2197C42.2875 38.04 42.2161 37.8675 42.089 37.7404L40.0552 35.7065L39.0965 36.6652L39.9731 37.5418H36.4667L37.3433 36.6652L36.3847 35.7065L34.3508 37.7404C34.2237 37.8675 34.1523 38.04 34.1523 38.2197C34.1523 38.3995 34.2237 38.5719 34.3508 38.699Z" fill="#0129AC"/>
<path d="M25.3368 23.9829C24.8005 23.9829 24.2762 24.142 23.8302 24.4399C23.3843 24.7379 23.0367 25.1614 22.8314 25.657C22.6262 26.1525 22.5725 26.6977 22.6771 27.2238C22.7817 27.7498 23.04 28.233 23.4193 28.6123C23.7985 28.9915 24.2817 29.2498 24.8078 29.3544C25.3338 29.4591 25.8791 29.4054 26.3746 29.2001C26.8701 28.9949 27.2936 28.6473 27.5916 28.2013C27.8896 27.7554 28.0486 27.2311 28.0486 26.6947C28.0486 25.9755 27.7629 25.2857 27.2544 24.7772C26.7458 24.2686 26.056 23.9829 25.3368 23.9829ZM25.3368 28.0506C25.0686 28.0506 24.8065 27.9711 24.5835 27.8221C24.3605 27.6731 24.1867 27.4614 24.0841 27.2136C23.9815 26.9659 23.9546 26.6932 24.007 26.4302C24.0593 26.1672 24.1884 25.9256 24.378 25.736C24.5677 25.5463 24.8093 25.4172 25.0723 25.3649C25.3353 25.3126 25.6079 25.3394 25.8557 25.442C26.1035 25.5447 26.3152 25.7184 26.4642 25.9414C26.6132 26.1644 26.6927 26.4266 26.6927 26.6947C26.6927 27.0543 26.5499 27.3992 26.2956 27.6535C26.0413 27.9078 25.6964 28.0506 25.3368 28.0506Z" fill="#0129AC"/>
</svg>
