<svg width="81" height="80" viewBox="0 0 81 80" fill="none" xmlns="http://www.w3.org/2000/svg">
<rect x="0.5" width="80" height="80" rx="40" fill="#007F0D"/>
<g clip-path="url(#clip0_1_667)">
<path d="M45.1249 36.4179C45.1249 37.2706 44.4348 37.9589 43.5839 37.9589C42.733 37.9589 42.041 37.2706 42.041 36.4179C42.041 35.5651 42.7312 34.875 43.5839 34.875C44.4348 34.875 45.1249 35.5633 45.1249 36.4179Z" fill="white"/>
<path d="M38.9589 36.4179C38.9589 37.2706 38.2688 37.9589 37.4161 37.9589C36.5651 37.9589 35.875 37.2706 35.875 36.4179C35.875 35.5633 36.5651 34.875 37.4161 34.875C38.2688 34.875 38.9589 35.5633 38.9589 36.4179Z" fill="white"/>
<path d="M55.9162 21H25.084C23.3875 21 22 22.3875 22 24.084V45.668C22 47.3627 23.3875 48.7502 25.084 48.7502H55.9162C57.6126 48.7502 59.0001 47.3627 59.0001 45.6662V24.084C59.0001 22.3876 57.6126 21 55.9162 21ZM52.0626 39.5001L49.7501 40.2715C49.7501 41.9752 48.3716 43.3537 46.6661 43.3537H34.334C32.6303 43.3537 31.25 41.9752 31.25 40.2715L28.9375 39.5001L27.3965 33.3322L28.9375 32.5625L31.25 37.1875C31.25 33.782 34.0106 31.0196 37.4161 31.0196H39.3438V28.7071L37.4161 27.9374V26.3946H43.584V27.9374L41.6563 28.7071V31.0196H43.584C46.9896 31.0196 49.7501 33.782 49.7501 37.1875L52.0626 32.5625L53.6037 33.3322L52.0626 39.5001Z" fill="white"/>
<path d="M43.584 54.9161V51.0625H37.4161V54.9161L31.25 56.4589V58H49.7501V56.4589L43.584 54.9161Z" fill="white"/>
</g>
<defs>
<clipPath id="clip0_1_667">
<rect width="37" height="37" fill="white" transform="translate(22 21)"/>
</clipPath>
</defs>
</svg>
