<svg width="1569" height="818" viewBox="0 0 1569 818" fill="none" xmlns="http://www.w3.org/2000/svg">
<rect width="1568.2" height="817.179" rx="37" fill="#040414"/>
<circle cx="1372.18" cy="641.983" r="3.67547" fill="#D9D9D9" fill-opacity="0.3"/>
<circle cx="1372.18" cy="715.493" r="3.67547" fill="#D9D9D9" fill-opacity="0.3"/>
<circle cx="1460.39" cy="641.983" r="3.67547" fill="#D9D9D9" fill-opacity="0.3"/>
<circle cx="1460.39" cy="715.493" r="3.67547" fill="#D9D9D9" fill-opacity="0.3"/>
<circle cx="1372.18" cy="678.738" r="3.67547" fill="#D9D9D9" fill-opacity="0.3"/>
<circle cx="1372.18" cy="752.247" r="3.67547" fill="#D9D9D9" fill-opacity="0.3"/>
<circle cx="1460.39" cy="678.738" r="3.67547" fill="#D9D9D9" fill-opacity="0.3"/>
<circle cx="1460.39" cy="752.247" r="3.67547" fill="#D9D9D9" fill-opacity="0.3"/>
<circle cx="1415.06" cy="641.983" r="3.67547" fill="#D9D9D9" fill-opacity="0.3"/>
<circle cx="1415.06" cy="715.493" r="3.67547" fill="#D9D9D9" fill-opacity="0.3"/>
<circle cx="1503.27" cy="641.983" r="3.67547" fill="#D9D9D9" fill-opacity="0.3"/>
<circle cx="1503.27" cy="715.493" r="3.67547" fill="#D9D9D9" fill-opacity="0.3"/>
<circle cx="1415.06" cy="678.738" r="3.67547" fill="#D9D9D9" fill-opacity="0.3"/>
<circle cx="1415.06" cy="752.247" r="3.67547" fill="#D9D9D9" fill-opacity="0.3"/>
<circle cx="1503.27" cy="678.738" r="3.67547" fill="#D9D9D9" fill-opacity="0.3"/>
<circle cx="1503.27" cy="752.247" r="3.67547" fill="#D9D9D9" fill-opacity="0.3"/>
<circle cx="150.694" cy="101.689" r="3.67547" fill="#D9D9D9" fill-opacity="0.3"/>
<circle cx="150.694" cy="175.198" r="3.67547" fill="#D9D9D9" fill-opacity="0.3"/>
<circle cx="238.905" cy="101.689" r="3.67547" fill="#D9D9D9" fill-opacity="0.3"/>
<circle cx="238.905" cy="175.198" r="3.67547" fill="#D9D9D9" fill-opacity="0.3"/>
<circle cx="150.694" cy="138.444" r="3.67547" fill="#D9D9D9" fill-opacity="0.3"/>
<circle cx="150.694" cy="211.953" r="3.67547" fill="#D9D9D9" fill-opacity="0.3"/>
<circle cx="238.905" cy="138.444" r="3.67547" fill="#D9D9D9" fill-opacity="0.3"/>
<circle cx="238.905" cy="211.953" r="3.67547" fill="#D9D9D9" fill-opacity="0.3"/>
<circle cx="193.575" cy="101.689" r="3.67547" fill="#D9D9D9" fill-opacity="0.3"/>
<circle cx="193.575" cy="175.198" r="3.67547" fill="#D9D9D9" fill-opacity="0.3"/>
<circle cx="281.786" cy="101.689" r="3.67547" fill="#D9D9D9" fill-opacity="0.3"/>
<circle cx="281.786" cy="175.198" r="3.67547" fill="#D9D9D9" fill-opacity="0.3"/>
<circle cx="193.575" cy="138.444" r="3.67547" fill="#D9D9D9" fill-opacity="0.3"/>
<circle cx="193.575" cy="211.953" r="3.67547" fill="#D9D9D9" fill-opacity="0.3"/>
<circle cx="281.786" cy="138.444" r="3.67547" fill="#D9D9D9" fill-opacity="0.3"/>
<circle cx="281.786" cy="211.953" r="3.67547" fill="#D9D9D9" fill-opacity="0.3"/>
</svg>
