<svg width="70" height="70" viewBox="0 0 70 70" fill="none" xmlns="http://www.w3.org/2000/svg">
<circle cx="35" cy="35" r="35" fill="#FFE8C8"/>
<circle cx="35" cy="35" r="34.5" stroke="black" stroke-opacity="0.1"/>
<path d="M31.2295 31.7222C31.9545 33.2323 32.9428 34.6475 34.1944 35.8992C35.4461 37.1508 36.8613 38.1391 38.3713 38.8641C38.5012 38.9265 38.5662 38.9577 38.6483 38.9816C38.9404 39.0667 39.299 39.0056 39.5463 38.8285C39.6159 38.7787 39.6754 38.7191 39.7945 38.6001C40.1587 38.2359 40.3408 38.0538 40.5239 37.9347C41.2144 37.4858 42.1046 37.4858 42.7951 37.9347C42.9782 38.0538 43.1603 38.2359 43.5244 38.6001L43.7274 38.803C44.281 39.3566 44.5578 39.6334 44.7082 39.9307C45.0072 40.5219 45.0072 41.2201 44.7082 41.8113C44.5578 42.1086 44.281 42.3854 43.7274 42.939L43.5632 43.1032C43.0115 43.6549 42.7357 43.9307 42.3607 44.1414C41.9445 44.3751 41.2982 44.5432 40.8208 44.5418C40.3907 44.5405 40.0967 44.4571 39.5087 44.2902C36.349 43.3934 33.3673 41.7012 30.8799 39.2137C28.3924 36.7262 26.7002 33.7446 25.8034 30.5848C25.6365 29.9969 25.553 29.7029 25.5518 29.2727C25.5503 28.7954 25.7184 28.1491 25.9522 27.7329C26.1629 27.3579 26.4387 27.082 26.9904 26.5303L27.1546 26.3661C27.7082 25.8126 27.985 25.5358 28.2823 25.3854C28.8735 25.0864 29.5717 25.0864 30.1629 25.3854C30.4602 25.5358 30.7369 25.8126 31.2905 26.3661L31.4935 26.5691C31.8577 26.9333 32.0398 27.1154 32.1588 27.2985C32.6078 27.989 32.6078 28.8792 32.1588 29.5697C32.0398 29.7528 31.8577 29.9349 31.4935 30.2991C31.3744 30.4181 31.3149 30.4777 31.2651 30.5473C31.088 30.7946 31.0268 31.1532 31.112 31.4452C31.1359 31.5274 31.1671 31.5924 31.2295 31.7222Z" stroke="#543100" stroke-width="2.08333" stroke-linecap="round" stroke-linejoin="round"/>
</svg>
