<svg width="70" height="70" viewBox="0 0 70 70" fill="none" xmlns="http://www.w3.org/2000/svg">
<circle cx="35" cy="35" r="35" fill="#FFECFB"/>
<circle cx="35" cy="35" r="34.5" stroke="black" stroke-opacity="0.1"/>
<path d="M24.5835 29.7917L33.0886 35.7453C33.7773 36.2274 34.1217 36.4684 34.4963 36.5618C34.8271 36.6443 35.1732 36.6443 35.5041 36.5618C35.8786 36.4684 36.223 36.2274 36.9117 35.7453L45.4168 29.7917M29.5835 43.3334H40.4168C42.167 43.3334 43.0421 43.3334 43.7105 42.9927C44.2986 42.6931 44.7766 42.2151 45.0762 41.6271C45.4168 40.9586 45.4168 40.0835 45.4168 38.3334V31.6667C45.4168 29.9165 45.4168 29.0414 45.0762 28.373C44.7766 27.785 44.2986 27.3069 43.7105 27.0073C43.0421 26.6667 42.167 26.6667 40.4168 26.6667H29.5835C27.8333 26.6667 26.9582 26.6667 26.2898 27.0073C25.7018 27.3069 25.2237 27.785 24.9241 28.373C24.5835 29.0414 24.5835 29.9165 24.5835 31.6667V38.3334C24.5835 40.0835 24.5835 40.9586 24.9241 41.6271C25.2237 42.2151 25.7018 42.6931 26.2898 42.9927C26.9582 43.3334 27.8333 43.3334 29.5835 43.3334Z" stroke="#580046" stroke-width="2.08333" stroke-linecap="round" stroke-linejoin="round"/>
</svg>
